<svg width="14" height="14" viewBox="0 0 14 14" xmlns="http://www.w3.org/2000/svg">
<path d="M1.84427 13.1577C1.70362 13.2984 1.51285 13.3774 1.31394 13.3774C1.11503 13.3774 0.924264 13.2984 0.783612 13.1577C0.64296 13.0171 0.563943 12.8263 0.563942 12.6274C0.563942 12.4285 0.642961 12.2377 0.783612 12.0971L7.32435 5.55635L3.61204 1.84404C3.50731 1.73912 3.43602 1.60552 3.40717 1.46012C3.37833 1.31471 3.39322 1.16402 3.44996 1.02707C3.50671 0.890121 3.60277 0.77306 3.726 0.690672C3.84924 0.608284 3.99413 0.564264 4.14237 0.564172L12.6277 0.564172C12.8264 0.564296 13.017 0.643304 13.1575 0.783842C13.2981 0.924379 13.3771 1.11495 13.3772 1.3137L13.3772 9.79899C13.3771 9.94723 13.3331 10.0921 13.2507 10.2154C13.1683 10.3386 13.0512 10.4346 12.9143 10.4914C12.7773 10.5481 12.6266 10.563 12.4812 10.5342C12.3358 10.5053 12.2022 10.434 12.0973 10.3293L8.38501 6.61701L1.84427 13.1577Z"/>
</svg>
