<svg width="554" height="554" viewBox="0 0 554 554" fill="none" xmlns="http://www.w3.org/2000/svg">
<mask id="mask0_130_779" style="mask-type:luminance" maskUnits="userSpaceOnUse" x="0" y="0" width="554" height="554">
<path d="M0 0H554V554H0V0Z" fill="white"/>
</mask>
<g mask="url(#mask0_130_779)">
<path d="M185.611 351.205C185.611 351.205 186.244 351.249 187.271 351.725C188.276 352.193 189.699 353.214 190.578 355.073C191.006 355.991 191.298 357.103 191.254 358.306C191.203 359.5 190.884 360.793 190.141 361.933C189.788 362.51 189.327 363.041 188.791 363.504C188.261 363.973 187.643 364.371 186.966 364.662C185.621 365.272 184.025 365.433 182.494 365.104C180.969 364.748 179.594 363.922 178.639 362.795C178.151 362.242 177.762 361.619 177.484 360.967C177.196 360.32 177.006 359.642 176.933 358.97C176.747 357.622 177.011 356.316 177.476 355.216C177.949 354.109 178.688 353.228 179.468 352.58C181.057 351.275 182.78 350.96 183.888 350.966C185.019 350.976 185.611 351.205 185.611 351.205C185.603 351.255 184.997 351.084 183.892 351.123C182.809 351.164 181.153 351.517 179.651 352.798C178.915 353.435 178.22 354.286 177.783 355.348C177.353 356.402 177.115 357.647 177.301 358.923C177.375 359.56 177.559 360.2 177.835 360.811C178.102 361.428 178.472 362.016 178.937 362.535C179.845 363.599 181.142 364.373 182.583 364.709C184.03 365.021 185.533 364.874 186.807 364.299C187.449 364.028 188.035 363.654 188.539 363.212C189.05 362.777 189.489 362.277 189.829 361.732C190.541 360.659 190.857 359.433 190.92 358.294C190.977 357.148 190.713 356.081 190.32 355.193C189.509 353.392 188.163 352.365 187.201 351.865C186.218 351.358 185.596 351.254 185.611 351.205Z" fill="#263238"/>
<path d="M191.241 343.691C191.237 343.693 191.231 343.611 191.226 343.444C191.221 343.26 191.216 343.015 191.209 342.696C191.199 342.009 191.186 341.021 191.168 339.738L191.218 339.799C189.58 339.442 187.428 338.972 184.824 338.405L184.939 338.348C184.429 339.432 183.863 340.638 183.257 341.926L183.227 341.992L183.155 341.995C181.825 342.051 180.414 342.28 178.987 342.734L178.91 342.758L178.853 342.701C177.976 341.834 177.028 340.896 176.042 339.918L176.22 339.937C174.481 341.044 172.637 342.22 170.7 343.453L170.765 343.266C171.177 344.418 171.633 345.689 172.099 346.991L172.132 347.085L172.064 347.159C171.173 348.123 170.316 349.301 169.638 350.614L169.59 350.707L169.484 350.708C168.259 350.713 166.907 350.717 165.531 350.723L165.706 350.582C165.258 352.587 164.775 354.751 164.281 356.969L164.179 356.759C165.292 357.286 166.514 357.865 167.751 358.452L167.857 358.501L167.861 358.618C167.912 359.938 168.145 361.376 168.588 362.77L168.622 362.882L168.539 362.966C167.666 363.844 166.712 364.803 165.75 365.77L165.777 365.525C166.886 367.275 168.076 369.152 169.282 371.052L169.046 370.971C170.222 370.551 171.492 370.099 172.772 369.644L172.887 369.603L172.977 369.686C173.957 370.596 175.133 371.443 176.417 372.109L176.419 372.11C176.468 372.191 176.312 371.933 176.529 372.291V372.293V372.301V372.317V372.349V372.411V372.535L176.53 372.784L176.531 373.281L176.533 374.273C176.535 374.932 176.536 375.589 176.537 376.244L176.379 376.048C178.538 376.533 180.667 377.011 182.766 377.482L182.542 377.592C183.114 376.389 183.679 375.199 184.24 374.019L184.292 373.911L184.41 373.907C185.836 373.853 187.236 373.605 188.563 373.187L188.676 373.152L188.759 373.235C189.706 374.18 190.639 375.11 191.561 376.028L191.323 376.002C193.211 374.808 195.055 373.642 196.853 372.506L196.779 372.724C196.33 371.46 195.889 370.216 195.456 368.996L195.419 368.893L195.494 368.813C196.475 367.756 197.291 366.589 197.929 365.366L197.979 365.274L198.084 365.273C199.439 365.273 200.753 365.272 202.037 365.272L201.875 365.402C202.383 363.155 202.863 361.037 203.32 359.019L203.405 359.192C202.15 358.593 200.973 358.029 199.837 357.487L199.758 357.449L199.755 357.362C199.698 355.854 199.436 354.465 199.04 353.192L199.017 353.116L199.072 353.059C200.091 352.044 201.007 351.129 201.873 350.266L201.857 350.412C200.509 348.266 199.362 346.437 198.379 344.869L198.485 344.907C196.994 345.426 195.769 345.853 194.75 346.209L194.712 346.222L194.685 346.195C193.634 345.214 192.741 344.617 192.145 344.239C191.853 344.062 191.629 343.928 191.465 343.829C191.308 343.739 191.237 343.693 191.241 343.691C191.245 343.688 191.329 343.724 191.481 343.8C191.638 343.88 191.874 344.001 192.18 344.182C192.789 344.544 193.7 345.126 194.773 346.1L194.707 346.087C195.722 345.718 196.94 345.276 198.424 344.736L198.492 344.712L198.532 344.774C199.528 346.33 200.692 348.15 202.058 350.286L202.109 350.366L202.042 350.433C201.182 351.303 200.271 352.224 199.261 353.247L199.293 353.113C199.704 354.404 199.979 355.814 200.043 357.351L199.961 357.225C201.099 357.763 202.279 358.32 203.537 358.913L203.648 358.966L203.621 359.087C203.173 361.107 202.701 363.227 202.201 365.474L202.173 365.605H202.039C200.754 365.611 199.44 365.616 198.084 365.622L198.238 365.528C197.589 366.78 196.759 367.975 195.759 369.058L195.796 368.875C196.233 370.094 196.676 371.336 197.128 372.6L197.178 372.74L197.053 372.818C195.256 373.958 193.414 375.128 191.528 376.326L191.4 376.408L191.29 376.301C190.367 375.384 189.433 374.455 188.484 373.512L188.68 373.56C187.321 373.991 185.886 374.245 184.426 374.302L184.596 374.189C184.038 375.369 183.473 376.56 182.902 377.762L182.835 377.906L182.678 377.872C180.58 377.401 178.45 376.925 176.292 376.441L176.135 376.405V376.245C176.133 375.591 176.131 374.933 176.13 374.274L176.128 373.281L176.127 372.785V372.536L176.126 372.412V372.349V372.319V372.302V372.294V372.291C176.343 372.647 176.186 372.388 176.234 372.469L176.233 372.468L176.231 372.467C174.915 371.783 173.709 370.915 172.703 369.981L172.907 370.023C171.627 370.478 170.356 370.929 169.18 371.348L169.029 371.402L168.943 371.267C167.739 369.365 166.551 367.489 165.443 365.736L165.359 365.603L165.47 365.492C166.434 364.525 167.388 363.568 168.263 362.69L168.216 362.886C167.765 361.458 167.529 359.984 167.478 358.633L167.587 358.798C166.351 358.209 165.13 357.628 164.017 357.098L163.882 357.034L163.916 356.887C164.415 354.67 164.903 352.509 165.355 350.503L165.387 350.362H165.53C166.907 350.362 168.258 350.361 169.484 350.361L169.33 350.454C170.027 349.115 170.906 347.914 171.82 346.933L171.785 347.102C171.324 345.798 170.874 344.527 170.466 343.372L170.423 343.252L170.53 343.185C172.473 341.961 174.323 340.795 176.066 339.696L176.163 339.634L176.244 339.715C177.226 340.697 178.169 341.641 179.04 342.515L178.907 342.481C180.359 342.028 181.796 341.805 183.145 341.758L183.044 341.825C183.66 340.541 184.235 339.34 184.754 338.261L184.789 338.187L184.869 338.205C187.466 338.803 189.612 339.298 191.245 339.674L191.296 339.686L191.295 339.737C191.284 341.009 191.275 341.989 191.269 342.67C191.263 342.993 191.259 343.242 191.255 343.429C191.25 343.599 191.245 343.688 191.241 343.691Z" fill="#263238"/>
<path fill-rule="evenodd" clip-rule="evenodd" d="M172.959 302.294C168.778 301.355 164.626 303.985 163.687 308.168C162.749 312.351 165.379 316.502 169.562 317.44C173.745 318.379 177.895 315.748 178.834 311.566C179.771 307.383 177.142 303.232 172.959 302.294ZM179.184 293.986C180.6 294.725 181.893 295.641 183.04 296.702L187.158 295.236L191.031 301.348L187.946 304.446C188.416 305.935 188.693 307.496 188.755 309.094L192.704 310.968L191.119 318.029L186.748 318.039C186.011 319.456 185.093 320.749 184.031 321.893L185.498 326.014L179.388 329.885L176.288 326.801C174.8 327.27 173.238 327.547 171.641 327.609L169.766 331.558L162.706 329.975L162.696 325.603C161.279 324.866 159.987 323.947 158.84 322.887L154.72 324.353L150.848 318.242L153.935 315.143C153.464 313.654 153.188 312.093 153.125 310.495L149.177 308.621L150.76 301.56L155.131 301.551C155.869 300.134 156.787 298.841 157.848 297.696L156.381 293.575L162.492 289.704L165.592 292.789C167.08 292.32 168.641 292.042 170.239 291.979L172.114 288.032L179.173 289.615L179.184 293.986Z" fill="#E8505B"/>
<mask id="mask1_130_779" style="mask-type:luminance" maskUnits="userSpaceOnUse" x="149" y="288" width="44" height="44">
<path d="M149.177 288.031H192.703V331.558H149.177V288.031Z" fill="white"/>
</mask>
<g mask="url(#mask1_130_779)">
<g opacity="0.800003">
<path fill-rule="evenodd" clip-rule="evenodd" d="M172.959 302.294C168.778 301.355 164.626 303.985 163.687 308.168C162.749 312.351 165.379 316.502 169.562 317.44C173.745 318.379 177.895 315.748 178.834 311.566C179.771 307.383 177.142 303.232 172.959 302.294ZM179.184 293.986C180.6 294.725 181.893 295.641 183.04 296.702L187.158 295.236L191.031 301.348L187.946 304.446C188.416 305.935 188.693 307.496 188.755 309.094L192.704 310.968L191.119 318.029L186.748 318.039C186.011 319.456 185.093 320.749 184.031 321.893L185.498 326.014L179.388 329.885L176.288 326.801C174.8 327.27 173.238 327.547 171.641 327.609L169.766 331.558L162.706 329.975L162.696 325.603C161.279 324.866 159.987 323.947 158.84 322.887L154.72 324.353L150.848 318.242L153.935 315.143C153.464 313.654 153.188 312.093 153.125 310.495L149.177 308.621L150.76 301.56L155.131 301.551C155.869 300.134 156.787 298.841 157.848 297.696L156.381 293.575L162.492 289.704L165.592 292.789C167.08 292.32 168.641 292.042 170.239 291.979L172.114 288.032L179.173 289.615L179.184 293.986Z" fill="white"/>
</g>
</g>
<path fill-rule="evenodd" clip-rule="evenodd" d="M150.032 340.411C147.598 339.864 145.18 341.396 144.634 343.831C144.088 346.265 145.62 348.682 148.054 349.228C150.49 349.774 152.905 348.243 153.451 345.808C153.997 343.373 152.467 340.957 150.032 340.411ZM153.655 335.575C154.479 336.004 155.233 336.538 155.9 337.155L158.298 336.302L160.552 339.86L158.756 341.664C159.029 342.53 159.191 343.439 159.227 344.368L161.526 345.461L160.603 349.57L158.059 349.576C157.63 350.401 157.095 351.154 156.477 351.821L157.331 354.22L153.774 356.473L151.97 354.677C151.102 354.951 150.194 355.111 149.264 355.148L148.173 357.446L144.063 356.525L144.058 353.98C143.232 353.55 142.48 353.016 141.813 352.398L139.414 353.252L137.16 349.694L138.956 347.891C138.683 347.024 138.522 346.115 138.485 345.186L136.188 344.094L137.108 339.984L139.653 339.978C140.083 339.153 140.617 338.401 141.236 337.734L140.381 335.335L143.938 333.081L145.743 334.878C146.609 334.605 147.518 334.443 148.449 334.406L149.54 332.108L153.65 333.03L153.655 335.575Z" fill="#E8505B"/>
<mask id="mask2_130_779" style="mask-type:luminance" maskUnits="userSpaceOnUse" x="136" y="332" width="26" height="26">
<path d="M136.188 332.109H161.525V357.446H136.188V332.109Z" fill="white"/>
</mask>
<g mask="url(#mask2_130_779)">
<g opacity="0.399994">
<path fill-rule="evenodd" clip-rule="evenodd" d="M150.032 340.411C147.598 339.864 145.18 341.396 144.634 343.831C144.088 346.265 145.62 348.682 148.054 349.228C150.49 349.774 152.905 348.243 153.451 345.808C153.997 343.373 152.467 340.957 150.032 340.411ZM153.655 335.575C154.479 336.004 155.233 336.538 155.9 337.155L158.298 336.302L160.552 339.86L158.756 341.664C159.029 342.53 159.191 343.439 159.227 344.368L161.526 345.461L160.603 349.57L158.059 349.576C157.63 350.401 157.095 351.154 156.477 351.821L157.331 354.22L153.774 356.473L151.97 354.677C151.102 354.951 150.194 355.111 149.264 355.148L148.173 357.446L144.063 356.525L144.058 353.98C143.232 353.55 142.48 353.016 141.813 352.398L139.414 353.252L137.16 349.694L138.956 347.891C138.683 347.024 138.522 346.115 138.485 345.186L136.188 344.094L137.108 339.984L139.653 339.978C140.083 339.153 140.617 338.401 141.236 337.734L140.381 335.335L143.938 333.081L145.743 334.878C146.609 334.605 147.518 334.443 148.449 334.406L149.54 332.108L153.65 333.03L153.655 335.575Z" fill="white"/>
</g>
</g>
</g>
</svg>
