<svg width="34" height="34" viewBox="0 0 34 34" fill="none" xmlns="http://www.w3.org/2000/svg">
<path d="M9.49967 10.3333C10.8258 10.3333 12.0975 9.80647 13.0352 8.86878C13.9729 7.9311 14.4997 6.65933 14.4997 5.33325C14.4997 4.00717 13.9729 2.7354 13.0352 1.79772C12.0975 0.860036 10.8258 0.333252 9.49967 0.333252C8.17359 0.333252 6.90182 0.860036 5.96414 1.79772C5.02646 2.7354 4.49967 4.00717 4.49967 5.33325C4.49967 6.65933 5.02646 7.9311 5.96414 8.86878C6.90182 9.80647 8.17359 10.3333 9.49967 10.3333ZM0.333008 14.9466C0.333008 13.3166 1.65134 11.9999 3.27967 11.9999H11.2247C10.6387 13.0129 10.3311 14.1629 10.333 15.3332C10.3319 16.2792 10.5326 17.2146 10.9218 18.0768C11.3109 18.939 11.8795 19.7083 12.5897 20.3332H10.7797C9.84034 20.3333 8.92336 20.6199 8.15117 21.1547C7.37897 21.6896 6.7883 22.4472 6.45801 23.3266C3.96134 22.7166 2.41301 21.3549 1.50134 19.8382C0.333008 17.8932 0.333008 15.8932 0.333008 15.5449V14.9466ZM23.6663 15.3332C23.6684 14.1629 23.3607 13.0129 22.7747 11.9999H30.7197C32.3497 11.9999 33.6663 13.3182 33.6663 14.9466V15.5466C33.6663 15.8916 33.6663 17.8932 32.4997 19.8382C31.5863 21.3549 30.038 22.7166 27.5413 23.3266C27.2112 22.4471 26.6206 21.6893 25.8484 21.1544C25.0761 20.6195 24.1591 20.3331 23.2197 20.3332H21.4097C22.1198 19.7083 22.6884 18.939 23.0776 18.0768C23.4667 17.2146 23.6675 16.2792 23.6663 15.3332ZM29.4997 5.33325C29.4997 6.65933 28.9729 7.9311 28.0352 8.86878C27.0975 9.80647 25.8258 10.3333 24.4997 10.3333C23.1736 10.3333 21.9018 9.80647 20.9641 8.86878C20.0265 7.9311 19.4997 6.65933 19.4997 5.33325C19.4997 4.00717 20.0265 2.7354 20.9641 1.79772C21.9018 0.860036 23.1736 0.333252 24.4997 0.333252C25.8258 0.333252 27.0975 0.860036 28.0352 1.79772C28.9729 2.7354 29.4997 4.00717 29.4997 5.33325ZM7.83301 24.9466C7.83301 23.3166 9.15134 21.9999 10.7797 21.9999H23.2197C24.848 21.9999 26.1663 23.3182 26.1663 24.9466V25.5466C26.1663 25.8916 26.1663 27.8932 24.9997 29.8382C23.7613 31.8949 21.3547 33.6666 16.9997 33.6666C12.6447 33.6666 10.2363 31.8949 8.99967 29.8382C7.83301 27.8932 7.83301 25.8932 7.83301 25.5449V24.9466ZM16.9997 20.3332C17.6563 20.3332 18.3065 20.2039 18.9131 19.9526C19.5197 19.7014 20.0709 19.3331 20.5352 18.8688C20.9995 18.4045 21.3678 17.8533 21.6191 17.2467C21.8703 16.64 21.9997 15.9899 21.9997 15.3332C21.9997 14.6766 21.8703 14.0265 21.6191 13.4198C21.3678 12.8132 20.9995 12.262 20.5352 11.7977C20.0709 11.3334 19.5197 10.9651 18.9131 10.7139C18.3065 10.4626 17.6563 10.3333 16.9997 10.3333C15.6736 10.3333 14.4018 10.86 13.4641 11.7977C12.5265 12.7354 11.9997 14.0072 11.9997 15.3332C11.9997 16.6593 12.5265 17.9311 13.4641 18.8688C14.4018 19.8065 15.6736 20.3332 16.9997 20.3332Z" fill="white"/>
</svg>
