<svg width="706" height="211" viewBox="0 0 706 211" fill="none" xmlns="http://www.w3.org/2000/svg">
<rect x="312" y="81" width="163" height="53" rx="26.5" fill="black"/>
<rect x="268" y="9" width="225" height="61" rx="30.5" fill="black"/>
<path d="M10.032 19.496V53H3.312V19.496H10.032ZM27.0874 25.976C29.0714 25.976 30.8154 26.376 32.3194 27.176C33.8234 27.944 35.0074 28.952 35.8714 30.2V26.408H42.6394V53.192C42.6394 55.656 42.1434 57.848 41.1514 59.768C40.1594 61.72 38.6714 63.256 36.6874 64.376C34.7034 65.528 32.3034 66.104 29.4874 66.104C25.7114 66.104 22.6074 65.224 20.1754 63.464C17.7754 61.704 16.4154 59.304 16.0954 56.264H22.7674C23.1194 57.48 23.8714 58.44 25.0234 59.144C26.2074 59.88 27.6314 60.248 29.2954 60.248C31.2474 60.248 32.8314 59.656 34.0474 58.472C35.2634 57.32 35.8714 55.56 35.8714 53.192V49.064C35.0074 50.312 33.8074 51.352 32.2714 52.184C30.7674 53.016 29.0394 53.432 27.0874 53.432C24.8474 53.432 22.7994 52.856 20.9434 51.704C19.0874 50.552 17.6154 48.936 16.5274 46.856C15.4714 44.744 14.9434 42.328 14.9434 39.608C14.9434 36.92 15.4714 34.536 16.5274 32.456C17.6154 30.376 19.0714 28.776 20.8954 27.656C22.7514 26.536 24.8154 25.976 27.0874 25.976ZM35.8714 39.704C35.8714 38.072 35.5514 36.68 34.9114 35.528C34.2714 34.344 33.4074 33.448 32.3194 32.84C31.2314 32.2 30.0634 31.88 28.8154 31.88C27.5674 31.88 26.4154 32.184 25.3594 32.792C24.3034 33.4 23.4394 34.296 22.7674 35.48C22.1274 36.632 21.8074 38.008 21.8074 39.608C21.8074 41.208 22.1274 42.616 22.7674 43.832C23.4394 45.016 24.3034 45.928 25.3594 46.568C26.4474 47.208 27.5994 47.528 28.8154 47.528C30.0634 47.528 31.2314 47.224 32.3194 46.616C33.4074 45.976 34.2714 45.08 34.9114 43.928C35.5514 42.744 35.8714 41.336 35.8714 39.704ZM63.9386 26.024C67.1066 26.024 69.6666 27.032 71.6186 29.048C73.5706 31.032 74.5466 33.816 74.5466 37.4V53H67.8266V38.312C67.8266 36.2 67.2986 34.584 66.2426 33.464C65.1866 32.312 63.7466 31.736 61.9226 31.736C60.0666 31.736 58.5946 32.312 57.5066 33.464C56.4506 34.584 55.9226 36.2 55.9226 38.312V53H49.2026V26.408H55.9226V29.72C56.8186 28.568 57.9546 27.672 59.3306 27.032C60.7386 26.36 62.2746 26.024 63.9386 26.024ZM84.345 23.24C83.161 23.24 82.169 22.872 81.369 22.136C80.601 21.368 80.217 20.424 80.217 19.304C80.217 18.184 80.601 17.256 81.369 16.52C82.169 15.752 83.161 15.368 84.345 15.368C85.529 15.368 86.505 15.752 87.273 16.52C88.073 17.256 88.473 18.184 88.473 19.304C88.473 20.424 88.073 21.368 87.273 22.136C86.505 22.872 85.529 23.24 84.345 23.24ZM87.657 26.408V53H80.937V26.408H87.657ZM102.12 31.928V44.792C102.12 45.688 102.328 46.344 102.744 46.76C103.192 47.144 103.928 47.336 104.952 47.336H108.072V53H103.848C98.1844 53 95.3524 50.248 95.3524 44.744V31.928H92.1844V26.408H95.3524V19.832H102.12V26.408H108.072V31.928H102.12ZM137.626 39.128C137.626 40.088 137.562 40.952 137.434 41.72H117.994C118.154 43.64 118.826 45.144 120.01 46.232C121.194 47.32 122.65 47.864 124.378 47.864C126.874 47.864 128.65 46.792 129.706 44.648H136.954C136.186 47.208 134.714 49.32 132.538 50.984C130.362 52.616 127.69 53.432 124.522 53.432C121.962 53.432 119.658 52.872 117.61 51.752C115.594 50.6 114.01 48.984 112.858 46.904C111.738 44.824 111.178 42.424 111.178 39.704C111.178 36.952 111.738 34.536 112.858 32.456C113.978 30.376 115.546 28.776 117.562 27.656C119.578 26.536 121.898 25.976 124.522 25.976C127.05 25.976 129.306 26.52 131.29 27.608C133.306 28.696 134.858 30.248 135.946 32.264C137.066 34.248 137.626 36.536 137.626 39.128ZM130.666 37.208C130.634 35.48 130.01 34.104 128.794 33.08C127.578 32.024 126.09 31.496 124.33 31.496C122.666 31.496 121.258 32.008 120.106 33.032C118.986 34.024 118.298 35.416 118.042 37.208H130.666ZM179.408 26.408L162.944 65.576H155.792L161.552 52.328L150.896 26.408H158.432L165.296 44.984L172.256 26.408H179.408ZM194.839 53.432C192.279 53.432 189.975 52.872 187.927 51.752C185.879 50.6 184.263 48.984 183.079 46.904C181.927 44.824 181.351 42.424 181.351 39.704C181.351 36.984 181.943 34.584 183.127 32.504C184.343 30.424 185.991 28.824 188.071 27.704C190.151 26.552 192.471 25.976 195.031 25.976C197.591 25.976 199.911 26.552 201.991 27.704C204.071 28.824 205.703 30.424 206.887 32.504C208.103 34.584 208.711 36.984 208.711 39.704C208.711 42.424 208.087 44.824 206.839 46.904C205.623 48.984 203.959 50.6 201.847 51.752C199.767 52.872 197.431 53.432 194.839 53.432ZM194.839 47.576C196.055 47.576 197.191 47.288 198.247 46.712C199.335 46.104 200.199 45.208 200.839 44.024C201.479 42.84 201.799 41.4 201.799 39.704C201.799 37.176 201.127 35.24 199.783 33.896C198.471 32.52 196.855 31.832 194.935 31.832C193.015 31.832 191.399 32.52 190.087 33.896C188.807 35.24 188.167 37.176 188.167 39.704C188.167 42.232 188.791 44.184 190.039 45.56C191.319 46.904 192.919 47.576 194.839 47.576ZM238.744 26.408V53H231.976V49.64C231.112 50.792 229.976 51.704 228.568 52.376C227.192 53.016 225.688 53.336 224.056 53.336C221.976 53.336 220.136 52.904 218.536 52.04C216.936 51.144 215.672 49.848 214.744 48.152C213.848 46.424 213.4 44.376 213.4 42.008V26.408H220.12V41.048C220.12 43.16 220.648 44.792 221.704 45.944C222.76 47.064 224.2 47.624 226.024 47.624C227.88 47.624 229.336 47.064 230.392 45.944C231.448 44.792 231.976 43.16 231.976 41.048V26.408H238.744ZM252.095 30.536C252.959 29.128 254.079 28.024 255.455 27.224C256.863 26.424 258.463 26.024 260.255 26.024V33.08H258.479C256.367 33.08 254.767 33.576 253.679 34.568C252.623 35.56 252.095 37.288 252.095 39.752V53H245.375V26.408H252.095V30.536ZM536.276 53L532.628 49.4C529.524 52.184 525.732 53.576 521.252 53.576C518.788 53.576 516.612 53.16 514.724 52.328C512.868 51.464 511.428 50.264 510.404 48.728C509.38 47.16 508.868 45.352 508.868 43.304C508.868 41.096 509.492 39.112 510.74 37.352C511.988 35.592 513.828 34.168 516.26 33.08C515.396 32.024 514.772 31.016 514.388 30.056C514.004 29.064 513.812 28.008 513.812 26.888C513.812 25.352 514.212 23.976 515.012 22.76C515.812 21.512 516.948 20.536 518.42 19.832C519.924 19.128 521.668 18.776 523.652 18.776C525.668 18.776 527.396 19.16 528.836 19.928C530.276 20.696 531.348 21.72 532.052 23C532.756 24.28 533.06 25.704 532.964 27.272H526.436C526.468 26.216 526.212 25.416 525.668 24.872C525.124 24.296 524.388 24.008 523.46 24.008C522.564 24.008 521.812 24.28 521.204 24.824C520.628 25.336 520.34 26.008 520.34 26.84C520.34 27.64 520.58 28.44 521.06 29.24C521.54 30.008 522.324 30.968 523.412 32.12L531.859 40.472C531.924 40.408 531.972 40.344 532.004 40.28C532.036 40.216 532.068 40.152 532.1 40.088L534.836 35.528H541.844L538.484 41.432C537.844 42.68 537.156 43.864 536.42 44.984L544.532 53H536.276ZM521.444 48.008C524.068 48.008 526.388 47.08 528.404 45.224L520.148 37.064C517.044 38.44 515.492 40.392 515.492 42.92C515.492 44.36 516.036 45.576 517.124 46.568C518.212 47.528 519.652 48.008 521.444 48.008ZM10.032 96.92V105.32H21.312V110.648H10.032V119.528H22.752V125H3.312V91.448H22.752V96.92H10.032ZM35.5789 89.48V125H28.8589V89.48H35.5789ZM66.9383 111.128C66.9383 112.088 66.8743 112.952 66.7463 113.72H47.3063C47.4663 115.64 48.1383 117.144 49.3223 118.232C50.5063 119.32 51.9623 119.864 53.6903 119.864C56.1863 119.864 57.9623 118.792 59.0183 116.648H66.2663C65.4983 119.208 64.0263 121.32 61.8503 122.984C59.6743 124.616 57.0023 125.432 53.8343 125.432C51.2743 125.432 48.9703 124.872 46.9223 123.752C44.9063 122.6 43.3223 120.984 42.1703 118.904C41.0503 116.824 40.4902 114.424 40.4902 111.704C40.4902 108.952 41.0503 106.536 42.1703 104.456C43.2903 102.376 44.8583 100.776 46.8743 99.656C48.8903 98.536 51.2103 97.976 53.8343 97.976C56.3623 97.976 58.6183 98.52 60.6023 99.608C62.6183 100.696 64.1703 102.248 65.2583 104.264C66.3783 106.248 66.9383 108.536 66.9383 111.128ZM59.9783 109.208C59.9463 107.48 59.3223 106.104 58.1063 105.08C56.8903 104.024 55.4023 103.496 53.6423 103.496C51.9783 103.496 50.5703 104.008 49.4183 105.032C48.2983 106.024 47.6103 107.416 47.3543 109.208H59.9783ZM82.9313 118.808L89.6513 98.408H96.8033L86.9633 125H78.8033L69.0113 98.408H76.2113L82.9313 118.808ZM98.8496 111.608C98.8496 108.92 99.3776 106.536 100.434 104.456C101.522 102.376 102.978 100.776 104.802 99.656C106.658 98.536 108.722 97.976 110.994 97.976C112.978 97.976 114.706 98.376 116.178 99.176C117.682 99.976 118.882 100.984 119.778 102.2V98.408H126.546V125H119.778V121.112C118.914 122.36 117.714 123.4 116.178 124.232C114.674 125.032 112.93 125.432 110.946 125.432C108.706 125.432 106.658 124.856 104.802 123.704C102.978 122.552 101.522 120.936 100.434 118.856C99.3776 116.744 98.8496 114.328 98.8496 111.608ZM119.778 111.704C119.778 110.072 119.458 108.68 118.818 107.528C118.178 106.344 117.314 105.448 116.226 104.84C115.138 104.2 113.97 103.88 112.722 103.88C111.474 103.88 110.322 104.184 109.266 104.792C108.21 105.4 107.346 106.296 106.674 107.48C106.034 108.632 105.714 110.008 105.714 111.608C105.714 113.208 106.034 114.616 106.674 115.832C107.346 117.016 108.21 117.928 109.266 118.568C110.354 119.208 111.506 119.528 112.722 119.528C113.97 119.528 115.138 119.224 116.226 118.616C117.314 117.976 118.178 117.08 118.818 115.928C119.458 114.744 119.778 113.336 119.778 111.704ZM140.933 103.928V116.792C140.933 117.688 141.141 118.344 141.557 118.76C142.005 119.144 142.741 119.336 143.765 119.336H146.885V125H142.661C136.997 125 134.165 122.248 134.165 116.744V103.928H130.997V98.408H134.165V91.832H140.933V98.408H146.885V103.928H140.933ZM176.438 111.128C176.438 112.088 176.374 112.952 176.246 113.72H156.806C156.966 115.64 157.638 117.144 158.822 118.232C160.006 119.32 161.462 119.864 163.19 119.864C165.686 119.864 167.462 118.792 168.518 116.648H175.766C174.998 119.208 173.526 121.32 171.35 122.984C169.174 124.616 166.502 125.432 163.334 125.432C160.774 125.432 158.47 124.872 156.422 123.752C154.406 122.6 152.822 120.984 151.67 118.904C150.55 116.824 149.99 114.424 149.99 111.704C149.99 108.952 150.55 106.536 151.67 104.456C152.79 102.376 154.358 100.776 156.374 99.656C158.39 98.536 160.71 97.976 163.334 97.976C165.862 97.976 168.118 98.52 170.102 99.608C172.118 100.696 173.67 102.248 174.758 104.264C175.878 106.248 176.438 108.536 176.438 111.128ZM169.478 109.208C169.446 107.48 168.822 106.104 167.606 105.08C166.39 104.024 164.902 103.496 163.142 103.496C161.478 103.496 160.07 104.008 158.918 105.032C157.798 106.024 157.11 107.416 156.854 109.208H169.478ZM218.221 98.408L201.757 137.576H194.605L200.365 124.328L189.709 98.408H197.245L204.109 116.984L211.069 98.408H218.221ZM233.651 125.432C231.091 125.432 228.787 124.872 226.739 123.752C224.691 122.6 223.075 120.984 221.891 118.904C220.739 116.824 220.163 114.424 220.163 111.704C220.163 108.984 220.755 106.584 221.939 104.504C223.155 102.424 224.803 100.824 226.883 99.704C228.963 98.552 231.283 97.976 233.843 97.976C236.403 97.976 238.723 98.552 240.803 99.704C242.883 100.824 244.515 102.424 245.699 104.504C246.915 106.584 247.523 108.984 247.523 111.704C247.523 114.424 246.899 116.824 245.651 118.904C244.435 120.984 242.771 122.6 240.659 123.752C238.579 124.872 236.243 125.432 233.651 125.432ZM233.651 119.576C234.867 119.576 236.003 119.288 237.059 118.712C238.147 118.104 239.011 117.208 239.651 116.024C240.291 114.84 240.611 113.4 240.611 111.704C240.611 109.176 239.939 107.24 238.595 105.896C237.283 104.52 235.667 103.832 233.747 103.832C231.827 103.832 230.211 104.52 228.899 105.896C227.619 107.24 226.979 109.176 226.979 111.704C226.979 114.232 227.603 116.184 228.851 117.56C230.131 118.904 231.731 119.576 233.651 119.576ZM277.557 98.408V125H270.789V121.64C269.925 122.792 268.789 123.704 267.381 124.376C266.005 125.016 264.501 125.336 262.869 125.336C260.789 125.336 258.949 124.904 257.349 124.04C255.749 123.144 254.485 121.848 253.557 120.152C252.661 118.424 252.213 116.376 252.213 114.008V98.408H258.933V113.048C258.933 115.16 259.461 116.792 260.517 117.944C261.573 119.064 263.013 119.624 264.837 119.624C266.693 119.624 268.149 119.064 269.205 117.944C270.261 116.792 270.789 115.16 270.789 113.048V98.408H277.557ZM290.907 102.536C291.771 101.128 292.891 100.024 294.267 99.224C295.675 98.424 297.275 98.024 299.067 98.024V105.08H297.291C295.179 105.08 293.579 105.576 292.491 106.568C291.435 107.56 290.907 109.288 290.907 111.752V125H284.187V98.408H290.907V102.536ZM504.542 103.928V116.792C504.542 117.688 504.75 118.344 505.166 118.76C505.614 119.144 506.35 119.336 507.374 119.336H510.494V125H506.27C500.606 125 497.774 122.248 497.774 116.744V103.928H494.606V98.408H497.774V91.832H504.542V98.408H510.494V103.928H504.542ZM530.304 98.024C532.32 98.024 534.112 98.472 535.68 99.368C537.248 100.232 538.464 101.528 539.328 103.256C540.224 104.952 540.672 107 540.672 109.4V125H533.952V110.312C533.952 108.2 533.424 106.584 532.368 105.464C531.312 104.312 529.872 103.736 528.048 103.736C526.192 103.736 524.72 104.312 523.632 105.464C522.576 106.584 522.048 108.2 522.048 110.312V125H515.328V89.48H522.048V101.72C522.912 100.568 524.064 99.672 525.504 99.032C526.944 98.36 528.544 98.024 530.304 98.024ZM553.782 102.536C554.646 101.128 555.766 100.024 557.142 99.224C558.55 98.424 560.15 98.024 561.942 98.024V105.08H560.166C558.054 105.08 556.454 105.576 555.366 106.568C554.31 107.56 553.782 109.288 553.782 111.752V125H547.062V98.408H553.782V102.536ZM578.276 125.432C575.716 125.432 573.412 124.872 571.364 123.752C569.316 122.6 567.7 120.984 566.516 118.904C565.364 116.824 564.788 114.424 564.788 111.704C564.788 108.984 565.38 106.584 566.564 104.504C567.78 102.424 569.428 100.824 571.508 99.704C573.588 98.552 575.908 97.976 578.468 97.976C581.028 97.976 583.348 98.552 585.428 99.704C587.508 100.824 589.14 102.424 590.324 104.504C591.54 106.584 592.148 108.984 592.148 111.704C592.148 114.424 591.524 116.824 590.276 118.904C589.06 120.984 587.396 122.6 585.284 123.752C583.204 124.872 580.868 125.432 578.276 125.432ZM578.276 119.576C579.492 119.576 580.628 119.288 581.684 118.712C582.772 118.104 583.636 117.208 584.276 116.024C584.916 114.84 585.236 113.4 585.236 111.704C585.236 109.176 584.564 107.24 583.22 105.896C581.908 104.52 580.292 103.832 578.372 103.832C576.452 103.832 574.836 104.52 573.524 105.896C572.244 107.24 571.604 109.176 571.604 111.704C571.604 114.232 572.228 116.184 573.476 117.56C574.756 118.904 576.356 119.576 578.276 119.576ZM622.182 98.408V125H615.414V121.64C614.55 122.792 613.414 123.704 612.006 124.376C610.63 125.016 609.126 125.336 607.494 125.336C605.414 125.336 603.574 124.904 601.974 124.04C600.374 123.144 599.11 121.848 598.182 120.152C597.286 118.424 596.838 116.376 596.838 114.008V98.408H603.558V113.048C603.558 115.16 604.086 116.792 605.142 117.944C606.198 119.064 607.638 119.624 609.462 119.624C611.318 119.624 612.774 119.064 613.83 117.944C614.886 116.792 615.414 115.16 615.414 113.048V98.408H622.182ZM639.228 97.976C641.212 97.976 642.956 98.376 644.46 99.176C645.964 99.944 647.148 100.952 648.012 102.2V98.408H654.78V125.192C654.78 127.656 654.284 129.848 653.292 131.768C652.3 133.72 650.812 135.256 648.828 136.376C646.844 137.528 644.444 138.104 641.628 138.104C637.852 138.104 634.748 137.224 632.316 135.464C629.916 133.704 628.556 131.304 628.236 128.264H634.908C635.26 129.48 636.012 130.44 637.164 131.144C638.348 131.88 639.772 132.248 641.436 132.248C643.388 132.248 644.972 131.656 646.188 130.472C647.404 129.32 648.012 127.56 648.012 125.192V121.064C647.148 122.312 645.948 123.352 644.412 124.184C642.908 125.016 641.18 125.432 639.228 125.432C636.988 125.432 634.94 124.856 633.084 123.704C631.228 122.552 629.756 120.936 628.668 118.856C627.612 116.744 627.084 114.328 627.084 111.608C627.084 108.92 627.612 106.536 628.668 104.456C629.756 102.376 631.212 100.776 633.036 99.656C634.892 98.536 636.956 97.976 639.228 97.976ZM648.012 111.704C648.012 110.072 647.692 108.68 647.052 107.528C646.412 106.344 645.548 105.448 644.46 104.84C643.372 104.2 642.204 103.88 640.956 103.88C639.708 103.88 638.556 104.184 637.5 104.792C636.444 105.4 635.58 106.296 634.908 107.48C634.268 108.632 633.948 110.008 633.948 111.608C633.948 113.208 634.268 114.616 634.908 115.832C635.58 117.016 636.444 117.928 637.5 118.568C638.588 119.208 639.74 119.528 640.956 119.528C642.204 119.528 643.372 119.224 644.46 118.616C645.548 117.976 646.412 117.08 647.052 115.928C647.692 114.744 648.012 113.336 648.012 111.704ZM676.319 98.024C678.335 98.024 680.127 98.472 681.695 99.368C683.263 100.232 684.479 101.528 685.343 103.256C686.239 104.952 686.687 107 686.687 109.4V125H679.967V110.312C679.967 108.2 679.439 106.584 678.383 105.464C677.327 104.312 675.887 103.736 674.063 103.736C672.207 103.736 670.735 104.312 669.647 105.464C668.591 106.584 668.063 108.2 668.063 110.312V125H661.343V89.48H668.063V101.72C668.927 100.568 670.079 99.672 671.519 99.032C672.959 98.36 674.559 98.024 676.319 98.024ZM27.744 173.864C27.744 175.656 27.312 177.336 26.448 178.904C25.616 180.472 24.288 181.736 22.464 182.696C20.672 183.656 18.4 184.136 15.648 184.136H10.032V197H3.312V163.496H15.648C18.24 163.496 20.448 163.944 22.272 164.84C24.096 165.736 25.456 166.968 26.352 168.536C27.28 170.104 27.744 171.88 27.744 173.864ZM15.36 178.712C17.216 178.712 18.592 178.296 19.488 177.464C20.384 176.6 20.832 175.4 20.832 173.864C20.832 170.6 19.008 168.968 15.36 168.968H10.032V178.712H15.36ZM57.2351 183.128C57.2351 184.088 57.1711 184.952 57.0431 185.72H37.6031C37.7631 187.64 38.4351 189.144 39.6191 190.232C40.8031 191.32 42.2591 191.864 43.9871 191.864C46.4831 191.864 48.2591 190.792 49.3151 188.648H56.5631C55.7951 191.208 54.3231 193.32 52.1471 194.984C49.9711 196.616 47.2991 197.432 44.1311 197.432C41.5711 197.432 39.2671 196.872 37.2191 195.752C35.2031 194.6 33.6191 192.984 32.4671 190.904C31.3471 188.824 30.7871 186.424 30.7871 183.704C30.7871 180.952 31.3471 178.536 32.4671 176.456C33.5871 174.376 35.1551 172.776 37.1711 171.656C39.1871 170.536 41.5071 169.976 44.1311 169.976C46.6591 169.976 48.9151 170.52 50.8991 171.608C52.9151 172.696 54.4671 174.248 55.5551 176.264C56.6751 178.248 57.2351 180.536 57.2351 183.128ZM50.2751 181.208C50.2431 179.48 49.6191 178.104 48.4031 177.08C47.1871 176.024 45.6991 175.496 43.9391 175.496C42.2751 175.496 40.8671 176.008 39.7151 177.032C38.5951 178.024 37.9071 179.416 37.6511 181.208H50.2751ZM68.8601 174.536C69.7241 173.128 70.8441 172.024 72.2201 171.224C73.6281 170.424 75.2281 170.024 77.0201 170.024V177.08H75.2441C73.1321 177.08 71.5321 177.576 70.4441 178.568C69.3881 179.56 68.8601 181.288 68.8601 183.752V197H62.1401V170.408H68.8601V174.536ZM91.7224 197.432C89.5464 197.432 87.5944 197.048 85.8664 196.28C84.1384 195.48 82.7624 194.408 81.7384 193.064C80.7464 191.72 80.2024 190.232 80.1064 188.6H86.8744C87.0024 189.624 87.4984 190.472 88.3624 191.144C89.2584 191.816 90.3624 192.152 91.6744 192.152C92.9544 192.152 93.9464 191.896 94.6504 191.384C95.3864 190.872 95.7544 190.216 95.7544 189.416C95.7544 188.552 95.3064 187.912 94.4104 187.496C93.5464 187.048 92.1544 186.568 90.2344 186.056C88.2504 185.576 86.6184 185.08 85.3384 184.568C84.0904 184.056 83.0024 183.272 82.0744 182.216C81.1784 181.16 80.7304 179.736 80.7304 177.944C80.7304 176.472 81.1464 175.128 81.9784 173.912C82.8424 172.696 84.0584 171.736 85.6264 171.032C87.2264 170.328 89.0984 169.976 91.2424 169.976C94.4104 169.976 96.9384 170.776 98.8264 172.376C100.714 173.944 101.754 176.072 101.946 178.76H95.5144C95.4184 177.704 94.9704 176.872 94.1704 176.264C93.4024 175.624 92.3624 175.304 91.0504 175.304C89.8344 175.304 88.8904 175.528 88.2184 175.976C87.5784 176.424 87.2584 177.048 87.2584 177.848C87.2584 178.744 87.7064 179.432 88.6024 179.912C89.4984 180.36 90.8904 180.824 92.7784 181.304C94.6984 181.784 96.2824 182.28 97.5304 182.792C98.7784 183.304 99.8504 184.104 100.746 185.192C101.674 186.248 102.154 187.656 102.186 189.416C102.186 190.952 101.754 192.328 100.89 193.544C100.058 194.76 98.8424 195.72 97.2424 196.424C95.6744 197.096 93.8344 197.432 91.7224 197.432ZM119.511 197.432C116.951 197.432 114.647 196.872 112.599 195.752C110.551 194.6 108.935 192.984 107.751 190.904C106.599 188.824 106.023 186.424 106.023 183.704C106.023 180.984 106.615 178.584 107.799 176.504C109.015 174.424 110.663 172.824 112.743 171.704C114.823 170.552 117.143 169.976 119.703 169.976C122.263 169.976 124.583 170.552 126.663 171.704C128.743 172.824 130.375 174.424 131.559 176.504C132.775 178.584 133.383 180.984 133.383 183.704C133.383 186.424 132.759 188.824 131.511 190.904C130.295 192.984 128.631 194.6 126.519 195.752C124.439 196.872 122.103 197.432 119.511 197.432ZM119.511 191.576C120.727 191.576 121.863 191.288 122.919 190.712C124.007 190.104 124.871 189.208 125.511 188.024C126.151 186.84 126.471 185.4 126.471 183.704C126.471 181.176 125.799 179.24 124.455 177.896C123.143 176.52 121.527 175.832 119.607 175.832C117.687 175.832 116.071 176.52 114.759 177.896C113.479 179.24 112.839 181.176 112.839 183.704C112.839 186.232 113.463 188.184 114.711 189.56C115.991 190.904 117.591 191.576 119.511 191.576ZM153.048 170.024C156.216 170.024 158.776 171.032 160.728 173.048C162.68 175.032 163.656 177.816 163.656 181.4V197H156.936V182.312C156.936 180.2 156.408 178.584 155.352 177.464C154.296 176.312 152.856 175.736 151.032 175.736C149.176 175.736 147.704 176.312 146.616 177.464C145.56 178.584 145.032 180.2 145.032 182.312V197H138.312V170.408H145.032V173.72C145.928 172.568 147.064 171.672 148.44 171.032C149.848 170.36 151.384 170.024 153.048 170.024ZM168.318 183.608C168.318 180.92 168.846 178.536 169.902 176.456C170.99 174.376 172.446 172.776 174.27 171.656C176.126 170.536 178.19 169.976 180.462 169.976C182.446 169.976 184.174 170.376 185.646 171.176C187.15 171.976 188.35 172.984 189.246 174.2V170.408H196.014V197H189.246V193.112C188.382 194.36 187.182 195.4 185.646 196.232C184.142 197.032 182.398 197.432 180.414 197.432C178.174 197.432 176.126 196.856 174.27 195.704C172.446 194.552 170.99 192.936 169.902 190.856C168.846 188.744 168.318 186.328 168.318 183.608ZM189.246 183.704C189.246 182.072 188.926 180.68 188.286 179.528C187.646 178.344 186.782 177.448 185.694 176.84C184.606 176.2 183.438 175.88 182.19 175.88C180.942 175.88 179.79 176.184 178.734 176.792C177.678 177.4 176.814 178.296 176.142 179.48C175.502 180.632 175.182 182.008 175.182 183.608C175.182 185.208 175.502 186.616 176.142 187.832C176.814 189.016 177.678 189.928 178.734 190.568C179.822 191.208 180.974 191.528 182.19 191.528C183.438 191.528 184.606 191.224 185.694 190.616C186.782 189.976 187.646 189.08 188.286 187.928C188.926 186.744 189.246 185.336 189.246 183.704ZM209.298 161.48V197H202.578V161.48H209.298ZM219.345 167.24C218.161 167.24 217.169 166.872 216.369 166.136C215.601 165.368 215.217 164.424 215.217 163.304C215.217 162.184 215.601 161.256 216.369 160.52C217.169 159.752 218.161 159.368 219.345 159.368C220.529 159.368 221.505 159.752 222.273 160.52C223.073 161.256 223.473 162.184 223.473 163.304C223.473 164.424 223.073 165.368 222.273 166.136C221.505 166.872 220.529 167.24 219.345 167.24ZM222.657 170.408V197H215.937V170.408H222.657ZM235.44 191.48H247.296V197H227.808V191.576L239.424 175.928H227.856V170.408H247.152V175.832L235.44 191.48ZM277.22 183.128C277.22 184.088 277.156 184.952 277.028 185.72H257.588C257.748 187.64 258.42 189.144 259.604 190.232C260.788 191.32 262.244 191.864 263.972 191.864C266.468 191.864 268.244 190.792 269.3 188.648H276.548C275.78 191.208 274.308 193.32 272.132 194.984C269.956 196.616 267.284 197.432 264.116 197.432C261.556 197.432 259.252 196.872 257.204 195.752C255.188 194.6 253.604 192.984 252.452 190.904C251.332 188.824 250.771 186.424 250.771 183.704C250.771 180.952 251.332 178.536 252.452 176.456C253.572 174.376 255.14 172.776 257.156 171.656C259.172 170.536 261.492 169.976 264.116 169.976C266.644 169.976 268.9 170.52 270.884 171.608C272.9 172.696 274.452 174.248 275.54 176.264C276.66 178.248 277.22 180.536 277.22 183.128ZM270.26 181.208C270.228 179.48 269.604 178.104 268.388 177.08C267.172 176.024 265.684 175.496 263.924 175.496C262.26 175.496 260.852 176.008 259.7 177.032C258.58 178.024 257.892 179.416 257.636 181.208H270.26ZM280.396 183.608C280.396 180.92 280.924 178.536 281.98 176.456C283.069 174.376 284.541 172.776 286.397 171.656C288.253 170.536 290.317 169.976 292.589 169.976C294.317 169.976 295.965 170.36 297.533 171.128C299.101 171.864 300.349 172.856 301.277 174.104V161.48H308.093V197H301.277V193.064C300.445 194.376 299.277 195.432 297.773 196.232C296.269 197.032 294.525 197.432 292.541 197.432C290.301 197.432 288.253 196.856 286.397 195.704C284.541 194.552 283.069 192.936 281.98 190.856C280.924 188.744 280.396 186.328 280.396 183.608ZM301.325 183.704C301.325 182.072 301.005 180.68 300.365 179.528C299.725 178.344 298.861 177.448 297.773 176.84C296.685 176.2 295.517 175.88 294.269 175.88C293.021 175.88 291.869 176.184 290.812 176.792C289.757 177.4 288.893 178.296 288.221 179.48C287.581 180.632 287.261 182.008 287.261 183.608C287.261 185.208 287.581 186.616 288.221 187.832C288.893 189.016 289.757 189.928 290.812 190.568C291.901 191.208 293.053 191.528 294.269 191.528C295.517 191.528 296.685 191.224 297.773 190.616C298.861 189.976 299.725 189.08 300.365 187.928C301.005 186.744 301.325 185.336 301.325 183.704ZM332.813 168.92V177.32H344.093V182.648H332.813V191.528H345.533V197H326.093V163.448H345.533V168.92H332.813ZM369.798 161.48V197H363.078V161.48H369.798ZM401.157 183.128C401.157 184.088 401.093 184.952 400.965 185.72H381.525C381.685 187.64 382.357 189.144 383.541 190.232C384.725 191.32 386.181 191.864 387.909 191.864C390.405 191.864 392.181 190.792 393.237 188.648H400.485C399.717 191.208 398.245 193.32 396.069 194.984C393.893 196.616 391.221 197.432 388.053 197.432C385.493 197.432 383.189 196.872 381.141 195.752C379.125 194.6 377.541 192.984 376.389 190.904C375.269 188.824 374.709 186.424 374.709 183.704C374.709 180.952 375.269 178.536 376.389 176.456C377.509 174.376 379.077 172.776 381.093 171.656C383.109 170.536 385.429 169.976 388.053 169.976C390.581 169.976 392.837 170.52 394.821 171.608C396.837 172.696 398.389 174.248 399.477 176.264C400.597 178.248 401.157 180.536 401.157 183.128ZM394.197 181.208C394.165 179.48 393.541 178.104 392.325 177.08C391.109 176.024 389.621 175.496 387.861 175.496C386.197 175.496 384.789 176.008 383.637 177.032C382.517 178.024 381.829 179.416 381.573 181.208H394.197ZM404.334 183.608C404.334 180.92 404.862 178.536 405.918 176.456C407.006 174.376 408.462 172.776 410.286 171.656C412.142 170.536 414.206 169.976 416.478 169.976C418.462 169.976 420.19 170.376 421.662 171.176C423.166 171.976 424.366 172.984 425.262 174.2V170.408H432.03V197H425.262V193.112C424.398 194.36 423.198 195.4 421.662 196.232C420.158 197.032 418.414 197.432 416.43 197.432C414.19 197.432 412.142 196.856 410.286 195.704C408.462 194.552 407.006 192.936 405.918 190.856C404.862 188.744 404.334 186.328 404.334 183.608ZM425.262 183.704C425.262 182.072 424.942 180.68 424.302 179.528C423.662 178.344 422.798 177.448 421.71 176.84C420.622 176.2 419.454 175.88 418.206 175.88C416.958 175.88 415.806 176.184 414.75 176.792C413.694 177.4 412.83 178.296 412.158 179.48C411.518 180.632 411.198 182.008 411.198 183.608C411.198 185.208 411.518 186.616 412.158 187.832C412.83 189.016 413.694 189.928 414.75 190.568C415.838 191.208 416.99 191.528 418.206 191.528C419.454 191.528 420.622 191.224 421.71 190.616C422.798 189.976 423.662 189.08 424.302 187.928C424.942 186.744 425.262 185.336 425.262 183.704ZM445.313 174.536C446.177 173.128 447.297 172.024 448.673 171.224C450.081 170.424 451.681 170.024 453.473 170.024V177.08H451.697C449.585 177.08 447.985 177.576 446.897 178.568C445.841 179.56 445.313 181.288 445.313 183.752V197H438.593V170.408H445.313V174.536ZM472.736 170.024C475.904 170.024 478.464 171.032 480.416 173.048C482.368 175.032 483.344 177.816 483.344 181.4V197H476.624V182.312C476.624 180.2 476.096 178.584 475.04 177.464C473.984 176.312 472.544 175.736 470.72 175.736C468.864 175.736 467.392 176.312 466.304 177.464C465.248 178.584 464.72 180.2 464.72 182.312V197H458V170.408H464.72V173.72C465.616 172.568 466.752 171.672 468.128 171.032C469.536 170.36 471.072 170.024 472.736 170.024ZM493.142 167.24C491.958 167.24 490.966 166.872 490.166 166.136C489.398 165.368 489.014 164.424 489.014 163.304C489.014 162.184 489.398 161.256 490.166 160.52C490.966 159.752 491.958 159.368 493.142 159.368C494.326 159.368 495.302 159.752 496.07 160.52C496.87 161.256 497.27 162.184 497.27 163.304C497.27 164.424 496.87 165.368 496.07 166.136C495.302 166.872 494.326 167.24 493.142 167.24ZM496.454 170.408V197H489.734V170.408H496.454ZM517.829 170.024C520.997 170.024 523.557 171.032 525.509 173.048C527.461 175.032 528.437 177.816 528.437 181.4V197H521.717V182.312C521.717 180.2 521.189 178.584 520.133 177.464C519.077 176.312 517.637 175.736 515.813 175.736C513.957 175.736 512.485 176.312 511.397 177.464C510.341 178.584 509.813 180.2 509.813 182.312V197H503.093V170.408H509.813V173.72C510.709 172.568 511.845 171.672 513.221 171.032C514.629 170.36 516.165 170.024 517.829 170.024ZM545.244 169.976C547.228 169.976 548.972 170.376 550.476 171.176C551.98 171.944 553.164 172.952 554.028 174.2V170.408H560.796V197.192C560.796 199.656 560.3 201.848 559.308 203.768C558.316 205.72 556.828 207.256 554.844 208.376C552.86 209.528 550.46 210.104 547.644 210.104C543.868 210.104 540.764 209.224 538.332 207.464C535.932 205.704 534.572 203.304 534.252 200.264H540.924C541.276 201.48 542.028 202.44 543.18 203.144C544.364 203.88 545.788 204.248 547.452 204.248C549.404 204.248 550.988 203.656 552.204 202.472C553.42 201.32 554.028 199.56 554.028 197.192V193.064C553.164 194.312 551.964 195.352 550.428 196.184C548.924 197.016 547.196 197.432 545.244 197.432C543.004 197.432 540.956 196.856 539.1 195.704C537.244 194.552 535.772 192.936 534.684 190.856C533.628 188.744 533.1 186.328 533.1 183.608C533.1 180.92 533.628 178.536 534.684 176.456C535.772 174.376 537.228 172.776 539.052 171.656C540.908 170.536 542.972 169.976 545.244 169.976ZM554.028 183.704C554.028 182.072 553.708 180.68 553.068 179.528C552.428 178.344 551.564 177.448 550.476 176.84C549.388 176.2 548.22 175.88 546.972 175.88C545.724 175.88 544.572 176.184 543.516 176.792C542.46 177.4 541.596 178.296 540.924 179.48C540.284 180.632 539.964 182.008 539.964 183.608C539.964 185.208 540.284 186.616 540.924 187.832C541.596 189.016 542.46 189.928 543.516 190.568C544.604 191.208 545.756 191.528 546.972 191.528C548.22 191.528 549.388 191.224 550.476 190.616C551.564 189.976 552.428 189.08 553.068 187.928C553.708 186.744 554.028 185.336 554.028 183.704Z" fill="black"/>
<path d="M320.357 43.4L322.997 43.496C322.741 46.216 322.357 48.808 321.845 51.272C320.789 51.816 319.253 52.312 317.237 52.76C315.253 53.208 313.253 53.432 311.237 53.432C307.237 53.432 304.133 52.152 301.925 49.592C299.717 47.032 298.613 43.8 298.613 39.896C298.613 35.992 299.429 32.344 301.061 28.952C301.957 27.096 303.077 25.48 304.421 24.104C305.765 22.696 307.509 21.544 309.653 20.648C311.829 19.752 313.989 19.304 316.133 19.304C318.309 19.304 320.277 19.464 322.037 19.784C323.829 20.104 324.981 20.392 325.493 20.648C325.493 22.76 325.173 25.448 324.533 28.712L321.749 29.096C321.557 25.448 321.221 23.4 320.741 22.952C320.517 22.728 319.877 22.488 318.821 22.232C317.797 21.976 316.773 21.848 315.749 21.848C313.797 21.848 312.053 22.328 310.517 23.288C309.013 24.216 307.797 25.496 306.869 27.128C305.013 30.392 304.085 34.392 304.085 39.128C304.085 43 304.933 45.912 306.629 47.864C308.325 49.784 310.405 50.744 312.869 50.744C313.957 50.744 314.981 50.6 315.941 50.312C316.933 50.024 317.573 49.768 317.861 49.544C318.309 49.256 319.141 47.208 320.357 43.4ZM347.616 49.448L348.432 50.744C345.936 52.536 343.904 53.432 342.336 53.432C340.96 53.432 340.272 52.632 340.272 51.032C340.272 50.36 340.544 48.792 341.088 46.328L341.568 44.12L341.28 44.024C340 46.84 338.368 49.112 336.384 50.84C334.432 52.568 332.448 53.432 330.432 53.432C327.808 53.432 326.496 51.864 326.496 48.728C326.496 47.672 326.704 46.216 327.12 44.36L329.184 34.616C329.248 34.296 329.28 33.96 329.28 33.608C329.28 32.968 328.048 32.424 325.584 31.976L325.824 30.44C329.44 29.992 331.968 29.768 333.408 29.768L333.84 30.248C333.776 31.848 333.6 33.304 333.312 34.616L331.44 43.736C331.024 45.816 330.816 47.16 330.816 47.768C330.816 49.304 331.392 50.072 332.544 50.072C333.504 50.072 334.576 49.56 335.76 48.536C336.944 47.48 338.08 46.072 339.168 44.312C340.256 42.552 341.184 40.408 341.952 37.88C342.72 35.32 343.104 32.776 343.104 30.248C344.576 30.184 345.888 29.96 347.04 29.576L347.808 30.2C347.232 31.992 346.704 34.152 346.224 36.68L344.16 48.008C344.032 48.648 343.968 49.24 343.968 49.784C343.968 50.328 344.176 50.6 344.592 50.6C345.072 50.6 346.08 50.216 347.616 49.448ZM366.551 34.904L363.335 34.28C363.015 34.28 362.567 34.632 361.991 35.336C360.711 36.84 359.335 39.288 357.863 42.68C356.391 46.04 355.655 49.4 355.655 52.76C354.215 52.824 352.903 53.048 351.719 53.432L350.951 52.808C351.527 51.016 352.055 48.856 352.535 46.328L354.599 34.904C354.663 34.584 354.695 34.248 354.695 33.896C354.695 33.256 353.463 32.712 350.999 32.264L351.239 30.728C354.855 30.28 357.383 30.056 358.823 30.056L359.255 30.536L357.191 38.888L357.527 38.984C358.359 37.096 359.303 35.416 360.359 33.944C362.471 31.032 364.519 29.576 366.503 29.576C367.975 29.576 368.711 29.944 368.711 30.68C368.711 31.576 368.455 32.504 367.943 33.464C367.463 34.424 366.999 34.904 366.551 34.904ZM377.746 18.2C378.578 18.2 379.25 18.424 379.762 18.872C380.274 19.288 380.53 19.912 380.53 20.744C380.53 21.544 380.274 22.216 379.762 22.76C379.25 23.272 378.578 23.528 377.746 23.528C376.018 23.528 375.154 22.632 375.154 20.84C375.154 20.104 375.378 19.48 375.826 18.968C376.306 18.456 376.946 18.2 377.746 18.2ZM379.33 49.448L380.146 50.744C378.13 52.536 376.13 53.432 374.146 53.432C372.418 53.432 371.554 52.424 371.554 50.408C371.554 49.64 371.73 48.28 372.082 46.328L374.194 34.616C374.258 34.296 374.29 33.96 374.29 33.608C374.29 32.968 373.058 32.424 370.594 31.976L370.834 30.44C374.45 29.992 376.978 29.768 378.418 29.768L378.85 30.248C378.786 31.56 378.61 33.016 378.322 34.616L375.97 47.24C375.778 48.584 375.682 49.32 375.682 49.448C375.682 50.216 375.938 50.6 376.45 50.6C376.834 50.6 377.794 50.216 379.33 49.448ZM399.391 48.2C398.367 49.736 397.023 51 395.359 51.992C393.727 52.952 391.791 53.432 389.551 53.432C387.311 53.432 385.535 52.728 384.223 51.32C382.943 49.88 382.303 47.88 382.303 45.32C382.303 41.64 383.343 38.152 385.423 34.856C386.415 33.288 387.743 32.024 389.407 31.064C391.071 30.072 393.023 29.576 395.263 29.576C397.503 29.576 399.279 30.296 400.591 31.736C401.903 33.176 402.559 35.192 402.559 37.784C402.559 41.56 401.503 45.032 399.391 48.2ZM386.815 44.456C386.815 48.744 388.239 50.888 391.087 50.888C392.527 50.888 393.775 50.472 394.831 49.64C395.471 49.128 396.159 47.672 396.895 45.272C397.663 42.872 398.047 40.536 398.047 38.264C398.047 34.168 396.607 32.12 393.727 32.12C392.319 32.12 391.087 32.536 390.031 33.368C389.391 33.88 388.687 35.336 387.919 37.736C387.183 40.136 386.815 42.376 386.815 44.456ZM416.94 36.44L417.036 34.52C417.036 33.464 416.892 32.776 416.604 32.456C416.348 32.136 415.5 31.976 414.06 31.976C412.62 31.976 411.516 32.232 410.748 32.744C410.492 32.936 410.268 33.32 410.076 33.896C409.884 34.44 409.788 34.904 409.788 35.288C409.788 35.672 409.82 36.008 409.884 36.296C409.98 36.552 410.14 36.808 410.364 37.064C410.588 37.32 410.764 37.528 410.892 37.688C411.052 37.848 411.34 38.056 411.756 38.312C412.172 38.568 412.46 38.744 412.62 38.84C412.812 38.936 413.164 39.128 413.676 39.416C414.22 39.672 414.732 39.928 415.212 40.184C416.172 40.696 417.164 41.4 418.188 42.296C419.212 43.16 419.724 44.296 419.724 45.704C419.724 47.912 418.844 49.752 417.084 51.224C415.324 52.696 413.132 53.432 410.508 53.432C407.916 53.432 405.788 52.952 404.124 51.992C404.188 49.976 404.588 47.784 405.324 45.416H407.724C407.596 46.536 407.532 47.496 407.532 48.296C407.532 50.024 408.732 50.888 411.132 50.888C413.052 50.888 414.316 50.648 414.924 50.168C415.18 49.944 415.404 49.528 415.596 48.92C415.82 48.312 415.932 47.816 415.932 47.432C415.932 47.016 415.884 46.68 415.788 46.424C415.724 46.136 415.58 45.88 415.356 45.656C415.132 45.4 414.956 45.192 414.828 45.032C414.7 44.872 414.428 44.68 414.012 44.456C413.596 44.2 413.308 44.024 413.148 43.928C413.02 43.832 412.684 43.656 412.14 43.4C410.06 42.376 408.588 41.384 407.724 40.424C406.86 39.432 406.428 38.024 406.428 36.2C406.428 34.376 407.228 32.824 408.828 31.544C410.428 30.232 412.556 29.576 415.212 29.576C417.004 29.576 418.748 29.896 420.444 30.536C420.284 32.424 419.916 34.392 419.34 36.44H416.94ZM430.809 18.2C431.641 18.2 432.313 18.424 432.825 18.872C433.337 19.288 433.593 19.912 433.593 20.744C433.593 21.544 433.337 22.216 432.825 22.76C432.313 23.272 431.641 23.528 430.809 23.528C429.081 23.528 428.217 22.632 428.217 20.84C428.217 20.104 428.441 19.48 428.889 18.968C429.369 18.456 430.009 18.2 430.809 18.2ZM432.393 49.448L433.209 50.744C431.193 52.536 429.193 53.432 427.209 53.432C425.481 53.432 424.617 52.424 424.617 50.408C424.617 49.64 424.793 48.28 425.145 46.328L427.257 34.616C427.321 34.296 427.353 33.96 427.353 33.608C427.353 32.968 426.121 32.424 423.657 31.976L423.897 30.44C427.513 29.992 430.041 29.768 431.481 29.768L431.913 30.248C431.849 31.56 431.673 33.016 431.385 34.616L429.033 47.24C428.841 48.584 428.745 49.32 428.745 49.448C428.745 50.216 429.001 50.6 429.513 50.6C429.897 50.6 430.857 50.216 432.393 49.448ZM447.365 49.496L447.989 50.84C445.365 52.568 443.061 53.432 441.077 53.432C439.797 53.432 438.821 53.112 438.149 52.472C437.477 51.8 437.141 50.952 437.141 49.928C437.141 48.872 437.269 47.672 437.525 46.328L439.973 32.888H436.661L436.853 30.872L439.541 30.296C440.181 30.136 440.645 29.8 440.933 29.288C441.221 28.744 441.909 27.032 442.997 24.152L445.829 23.864L444.677 30.056H449.765L449.285 32.888H444.101L441.461 47.192C441.301 48.248 441.221 48.92 441.221 49.208C441.221 50.136 441.733 50.6 442.757 50.6C443.781 50.6 445.317 50.232 447.365 49.496ZM458.131 53.336L454.147 34.136C453.955 33.272 453.667 32.744 453.283 32.552C452.931 32.328 451.955 32.136 450.355 31.976L450.595 30.44C454.051 29.992 456.291 29.768 457.315 29.768L457.747 30.248L461.203 49.304L461.395 49.352C463.411 46.664 465.091 43.912 466.435 41.096C467.779 38.28 468.451 35.976 468.451 34.184C468.451 33.608 468.259 33.16 467.875 32.84C467.491 32.52 467.091 32.328 466.675 32.264C466.291 32.168 465.635 32.072 464.707 31.976L464.947 30.44C468.275 29.992 470.515 29.768 471.667 29.768L472.099 30.248C472.291 30.6 472.387 31.176 472.387 31.976C472.387 34.344 471.459 37.368 469.603 41.048C467.747 44.696 465.539 48.168 462.979 51.464C460.419 54.728 457.667 57.544 454.723 59.912C451.779 62.312 449.331 63.512 447.379 63.512C445.907 63.512 445.171 63.144 445.171 62.408C445.171 61.544 445.427 60.616 445.939 59.624C446.419 58.664 446.883 58.184 447.331 58.184C447.651 58.184 448.195 58.28 448.963 58.472C449.731 58.664 450.211 58.76 450.403 58.76C452.227 58.76 454.803 56.952 458.131 53.336ZM368.399 100.712L365.567 101.048C365.727 99.064 365.807 97.64 365.807 96.776C365.807 95.912 365.647 95.32 365.327 95C364.655 94.328 363.487 93.992 361.823 93.992C360.159 93.992 358.799 94.376 357.743 95.144C356.207 96.264 355.439 97.704 355.439 99.464C355.439 101.192 356.127 102.568 357.503 103.592C358.559 104.424 360.015 105.288 361.871 106.184C363.759 107.08 365.231 108.184 366.287 109.496C367.375 110.808 367.919 112.52 367.919 114.632C367.919 117.704 366.799 120.28 364.559 122.36C362.351 124.408 359.359 125.432 355.583 125.432C353.727 125.432 351.983 125.208 350.351 124.76C348.719 124.28 347.519 123.816 346.751 123.368C346.751 121.16 347.359 118.504 348.575 115.4L351.359 115.256C351.231 117.56 351.167 119.048 351.167 119.72C351.167 120.36 351.359 120.84 351.743 121.16C352.127 121.48 352.815 121.832 353.807 122.216C354.831 122.568 355.967 122.744 357.215 122.744C358.495 122.744 359.663 122.36 360.719 121.592C362.319 120.44 363.119 118.808 363.119 116.696C363.119 114.584 362.063 112.872 359.951 111.56C359.311 111.144 358.703 110.776 358.127 110.456C355.535 109.112 353.711 107.848 352.655 106.664C351.599 105.448 351.071 103.832 351.071 101.816C351.071 98.744 352.223 96.232 354.527 94.28C356.863 92.296 359.887 91.304 363.599 91.304C366.063 91.304 368.271 91.736 370.223 92.6C370.095 94.936 369.487 97.64 368.399 100.712ZM391.922 121.448L392.738 122.744C390.562 124.536 388.722 125.432 387.218 125.432C386.514 125.432 385.89 125.208 385.346 124.76C384.802 124.312 384.098 123.352 383.234 121.88L378.098 113.144C376.402 116.792 375.554 120.664 375.554 124.76C374.114 124.824 372.802 125.048 371.618 125.432L370.85 124.808C371.426 123.016 371.954 120.856 372.434 118.328L377.33 92.792C377.394 92.472 377.426 92.136 377.426 91.784C377.426 91.144 376.194 90.6 373.73 90.152L373.97 88.616C377.586 88.168 380.114 87.944 381.554 87.944L381.986 88.424C381.922 89.736 381.746 91.192 381.458 92.792L379.826 101.24C379.698 101.912 379.314 103.176 378.674 105.032C378.066 106.856 377.618 108.408 377.33 109.688L377.09 110.888L377.378 110.984C378.658 108.232 380.546 105.976 383.042 104.216C385.57 102.456 387.954 101.576 390.194 101.576C390.77 101.576 391.378 101.704 392.018 101.96C392.69 102.184 393.026 102.52 393.026 102.968C393.026 103.768 392.77 104.6 392.258 105.464C391.778 106.328 391.33 106.76 390.914 106.76C390.53 106.76 389.874 106.504 388.946 105.992C388.05 105.448 387.506 105.176 387.314 105.176C385.042 105.176 382.77 106.536 380.498 109.256L387.65 121.448C388.098 122.216 388.514 122.6 388.898 122.6C389.314 122.6 390.322 122.216 391.922 121.448ZM402.731 90.2C403.563 90.2 404.235 90.424 404.747 90.872C405.259 91.288 405.515 91.912 405.515 92.744C405.515 93.544 405.259 94.216 404.747 94.76C404.235 95.272 403.563 95.528 402.731 95.528C401.003 95.528 400.139 94.632 400.139 92.84C400.139 92.104 400.363 91.48 400.811 90.968C401.291 90.456 401.931 90.2 402.731 90.2ZM404.315 121.448L405.131 122.744C403.115 124.536 401.115 125.432 399.131 125.432C397.403 125.432 396.539 124.424 396.539 122.408C396.539 121.64 396.715 120.28 397.067 118.328L399.179 106.616C399.243 106.296 399.275 105.96 399.275 105.608C399.275 104.968 398.043 104.424 395.579 103.976L395.819 102.44C399.435 101.992 401.963 101.768 403.403 101.768L403.835 102.248C403.771 103.56 403.595 105.016 403.307 106.616L400.955 119.24C400.763 120.584 400.667 121.32 400.667 121.448C400.667 122.216 400.923 122.6 401.435 122.6C401.819 122.6 402.779 122.216 404.315 121.448ZM415.447 121.448L416.263 122.744C414.247 124.536 412.247 125.432 410.263 125.432C408.535 125.432 407.671 124.424 407.671 122.408C407.671 121.64 407.847 120.28 408.199 118.328L413.095 92.792C413.159 92.472 413.191 92.136 413.191 91.784C413.191 91.144 411.959 90.6 409.495 90.152L409.735 88.616C413.351 88.168 415.879 87.944 417.319 87.944L417.751 88.424C417.687 89.736 417.511 91.192 417.223 92.792L412.087 119.24C411.895 120.104 411.799 120.888 411.799 121.592C411.799 122.264 412.055 122.6 412.567 122.6C412.951 122.6 413.911 122.216 415.447 121.448ZM426.697 121.448L427.513 122.744C425.497 124.536 423.497 125.432 421.513 125.432C419.785 125.432 418.921 124.424 418.921 122.408C418.921 121.64 419.097 120.28 419.449 118.328L424.345 92.792C424.409 92.472 424.441 92.136 424.441 91.784C424.441 91.144 423.209 90.6 420.745 90.152L420.985 88.616C424.601 88.168 427.129 87.944 428.569 87.944L429.001 88.424C428.937 89.736 428.761 91.192 428.473 92.792L423.337 119.24C423.145 120.104 423.049 120.888 423.049 121.592C423.049 122.264 423.305 122.6 423.817 122.6C424.201 122.6 425.161 122.216 426.697 121.448ZM441.643 108.44L441.739 106.52C441.739 105.464 441.595 104.776 441.307 104.456C441.051 104.136 440.203 103.976 438.763 103.976C437.323 103.976 436.219 104.232 435.451 104.744C435.195 104.936 434.971 105.32 434.779 105.896C434.587 106.44 434.491 106.904 434.491 107.288C434.491 107.672 434.523 108.008 434.587 108.296C434.683 108.552 434.843 108.808 435.067 109.064C435.291 109.32 435.467 109.528 435.595 109.688C435.755 109.848 436.043 110.056 436.459 110.312C436.875 110.568 437.163 110.744 437.323 110.84C437.515 110.936 437.867 111.128 438.379 111.416C438.923 111.672 439.435 111.928 439.915 112.184C440.875 112.696 441.867 113.4 442.891 114.296C443.915 115.16 444.427 116.296 444.427 117.704C444.427 119.912 443.547 121.752 441.787 123.224C440.027 124.696 437.835 125.432 435.211 125.432C432.619 125.432 430.491 124.952 428.827 123.992C428.891 121.976 429.291 119.784 430.027 117.416H432.427C432.299 118.536 432.235 119.496 432.235 120.296C432.235 122.024 433.435 122.888 435.835 122.888C437.755 122.888 439.019 122.648 439.627 122.168C439.883 121.944 440.107 121.528 440.299 120.92C440.523 120.312 440.635 119.816 440.635 119.432C440.635 119.016 440.587 118.68 440.491 118.424C440.427 118.136 440.283 117.88 440.059 117.656C439.835 117.4 439.659 117.192 439.531 117.032C439.403 116.872 439.131 116.68 438.715 116.456C438.299 116.2 438.011 116.024 437.851 115.928C437.723 115.832 437.387 115.656 436.843 115.4C434.763 114.376 433.291 113.384 432.427 112.424C431.563 111.432 431.131 110.024 431.131 108.2C431.131 106.376 431.931 104.824 433.531 103.544C435.131 102.232 437.259 101.576 439.915 101.576C441.707 101.576 443.451 101.896 445.147 102.536C444.987 104.424 444.619 106.392 444.043 108.44H441.643Z" fill="white"/>
</svg>
