<svg width="40" height="40" viewBox="0 0 40 40" fill="none" xmlns="http://www.w3.org/2000/svg">
<path d="M36.6663 10.4166V18.9166C36.6663 21.0333 35.9663 22.8166 34.7163 24.0499C33.483 25.2999 31.6997 25.9999 29.583 25.9999V29.0166C29.583 30.1499 28.3163 30.8333 27.383 30.1999L25.7663 29.1333C25.9163 28.6166 25.983 28.0499 25.983 27.4499V20.6666C25.983 17.2666 23.7163 14.9999 20.3163 14.9999H8.99967C8.76634 14.9999 8.54967 15.0166 8.33301 15.0333V10.4166C8.33301 6.16659 11.1663 3.33325 15.4163 3.33325H29.583C33.833 3.33325 36.6663 6.16659 36.6663 10.4166Z" stroke="white" stroke-width="4" stroke-miterlimit="10" stroke-linecap="round" stroke-linejoin="round"/>
<path d="M25.983 20.6667V27.45C25.983 28.05 25.9163 28.6167 25.7663 29.1333C25.1497 31.5833 23.1163 33.1167 20.3163 33.1167H15.783L10.7497 36.4667C10.5809 36.5822 10.3838 36.6492 10.1796 36.6605C9.97545 36.6717 9.7721 36.6268 9.59168 36.5306C9.41126 36.4344 9.26068 36.2905 9.1563 36.1147C9.05193 35.9389 8.99775 35.7378 8.99967 35.5333V33.1167C7.29967 33.1167 5.88301 32.55 4.89967 31.5667C3.89967 30.5667 3.33301 29.15 3.33301 27.45V20.6667C3.33301 17.5 5.29967 15.3167 8.33301 15.0333C8.54967 15.0167 8.76634 15 8.99967 15H20.3163C23.7163 15 25.983 17.2667 25.983 20.6667Z" stroke="white" stroke-width="4" stroke-miterlimit="10" stroke-linecap="round" stroke-linejoin="round"/>
</svg>
