<svg width="1440" height="311" viewBox="0 0 1440 311" fill="none" xmlns="http://www.w3.org/2000/svg">
<g clip-path="url(#clip0_125_153)">
<mask id="mask0_125_153" style="mask-type:luminance" maskUnits="userSpaceOnUse" x="-115" y="0" width="1670" height="311">
<path d="M1555 0H-115V311H1555V0Z" fill="white"/>
</mask>
<g mask="url(#mask0_125_153)">
<path d="M718.082 129.559L813.14 176.85L836.151 190.711L850.317 214.967L889.257 241.467L897.757 326.875H474.683V297.929L497.694 214.967V138.936L510.795 83.4913L537.878 58.4188C537.878 58.4188 553.276 43.539 557.883 40.8891C562.484 38.2392 569.919 48.4313 577.883 48.8388C581.384 49.0178 592.683 59.6485 602.668 65.3493C615.418 72.6295 626.917 75.3377 626.917 75.3377L644.268 94.7019C644.268 94.7019 656.304 85.3261 661.97 83.4913C667.631 81.6565 718.082 129.559 718.082 129.559Z" fill="url(#paint0_linear_125_153)"/>
<path d="M407.692 29.1489L354.587 0L335.324 12.5991L304.516 29.1489L265.645 45.4232C255.663 49.1809 235.527 58.2213 234.836 64.322C219.288 80.5682 214.341 88.4659 200.86 88.4659C191.647 88.4659 179.554 108.887 167.172 122.013L138.091 132.623L124.271 155.5C119.472 158.684 108.55 168.379 103.252 181.693C96.6294 198.335 40.7708 221.962 39.0432 229.106C37.6611 234.82 28.2935 252.706 23.7828 260.935L6.79489 290.674V311.058L-8.46545 329.607H348.568H360.428H697.294C694.224 325.666 688.091 316.44 688.091 311.058V290.674V269.271C683.548 262.476 673.113 246.36 667.735 236.249C662.35 226.139 662.656 206.761 663.485 198.335L617.992 174.893L581.701 166.128L549.482 115.577L519.923 88.4659L499.744 58.2979C499.744 58.2979 463.632 16.4808 456.726 19.3647C451.103 21.7138 443.981 29.1489 443.981 29.1489H407.692Z" fill="url(#paint1_linear_125_153)"/>
<path d="M1404.07 49.0423H1436.95L1455.09 36.4712L1468.91 29.1769L1499.72 25.5298L1539.45 5.63642L1558.74 0.994629C1568.72 4.75227 1576.23 58.2213 1576.92 64.3219C1592.47 80.5682 1597.42 88.4659 1610.9 88.4659C1620.11 88.4659 1632.21 108.887 1644.59 122.013L1673.67 132.623L1687.49 155.5C1692.29 158.684 1703.21 168.379 1708.51 181.693C1715.13 198.335 1770.99 221.962 1772.72 229.105C1774.1 234.82 1783.47 252.706 1787.98 260.935L1804.96 290.674V311.058L1820.22 329.607H1463.19H1451.33H1045.36C1048.43 325.666 1054.56 316.439 1054.56 311.058V290.674V262.64C1059.11 255.845 1069.54 239.729 1074.93 229.618C1080.31 219.508 1080 220.023 1079.17 211.597L1124.66 188.156L1160.95 179.391L1201.71 145.885L1221.58 118.697L1267.64 94.162C1267.64 94.162 1308.88 97.7826 1323.22 88.194C1332.14 82.226 1362.37 79.242 1362.37 79.242L1404.07 49.0423Z" fill="url(#paint2_linear_125_153)"/>
<path d="M1025.63 96.4777H1050.95L1081.04 86.8678H1115.33L1176.08 151.31L1216.97 174.752C1230.98 179.939 1260.91 190.313 1268.51 190.313C1278.01 190.313 1304.92 179.964 1319.18 190.313C1340.2 205.565 1359.49 234.069 1381.09 234.069L1442.13 315.31V344.753H1088.83H1081.04H364.117C390.316 310.848 442.714 241.244 442.714 234.069C442.714 225.1 457.406 208.181 464.133 203.696C469.511 200.109 503.315 182.905 519.537 174.752H611.767L668.057 151.31L737.097 96.4777L792.501 79.559L819.762 63.8633L842.065 31.453L851.803 20.2419H865.434L877.118 11.2729L900.302 31.453L922.611 49.3908L966.331 63.8633C971.231 67.2609 981.591 75.1559 983.86 79.559C986.123 83.9621 997.784 92.6727 1003.33 96.4777H1025.63Z" fill="url(#paint3_linear_125_153)"/>
<path d="M30.981 44.3676C40.0653 47.081 66.3966 53.7121 66.3966 53.7121L84.8241 71.2846H138.667L178.69 103.114L209.786 127.981L226.486 150.527L290.407 170.088L342.522 272.208L-158.19 287.751V258.806L-135.178 175.844V99.8117L-122.078 44.3676L-94.9944 19.295C-94.9944 19.295 -79.5938 4.41524 -74.9913 1.7653C-70.3889 -0.884627 -62.9541 9.30747 -54.9883 9.71501C-51.4899 9.89399 -43.7883 25.7969 -33.8034 31.4978C-21.0527 38.7778 -9.61723 35.1449 -9.61723 35.1449L9.09828 31.4978C9.09828 31.4978 21.8968 41.6542 30.981 44.3676Z" fill="url(#paint4_linear_125_153)"/>
<path d="M1012.54 286.465L1058.81 273.674L1104.96 266.335L1161.97 252.646L1199.12 236.779L1250.08 221.491L1298.17 236.779L1315.73 245.683C1322.83 240.394 1338.94 236.779 1345.39 236.779C1353.45 236.779 1361.8 232.498 1368.13 226.995C1373.2 222.592 1403.84 221.491 1418.52 221.491C1423.23 226.587 1434.3 236.779 1440.98 236.779C1447.66 236.779 1499.04 209.329 1523.9 195.604L1554.71 181.131V417.176H1088.55H351.626H-115.864V114.387L-63.7483 133.286H-30.9241L-5.58619 149.2C4.68316 149.2 7.49625 160.788 25.5104 167.677C40.4828 173.404 55.359 174.831 62.9414 167.677H72.4431L117.36 149.2H137.803L164.005 162.794C170.436 162.794 197.808 166.951 210.938 177.714C224.068 188.477 238.867 185.615 238.291 181.131L285.224 167.677L316.033 146.216L351.626 133.286L402.961 167.677L462.97 181.131H493.416L546.378 190.1L554.728 202.581L572.291 209.057H584.96H594.75H620.664H639.103L667.781 221.491H687.251L698.935 226.995C704.659 222.782 717.841 213.297 724.78 209.057C731.719 204.817 736.406 198.321 737.881 195.604H757.35L766.023 190.1H777.707C784.433 194.041 800.684 203.35 811.873 209.057C823.062 214.764 846.747 219.724 857.188 221.491L876.663 236.779L920.112 273.674L963.878 266.335L1012.54 286.465Z" fill="#C0B9DD"/>
<path d="M511.4 129.716C509.021 132.348 507.38 137.284 507.121 138.791C506.355 137.928 503.188 135.237 499.975 134.274C496.761 133.31 492.914 135.802 490.985 136.806C491.578 135.75 493.755 133.246 497.671 131.683C501.587 130.121 504.38 131.698 505.33 132.838C505.831 131.119 507.697 127.333 512.269 125.509C516.842 123.687 518.465 125.846 518.465 125.846C515.281 126.413 513.778 127.083 511.4 129.716Z" fill="#C0B9DD"/>
<path d="M634.49 115.546C632.417 116.648 630.361 119.451 629.895 120.371C629.567 119.604 628.023 117.012 626.106 115.538C624.188 114.065 621.182 114.691 619.714 114.843C620.313 114.307 622.23 113.236 625.109 113.238C627.983 113.241 629.503 115.005 629.901 116.002C630.563 115.006 632.538 113.014 635.89 113.017C639.247 113.02 639.886 114.861 639.886 114.861C637.686 114.398 636.569 114.443 634.49 115.546Z" fill="#C0B9DD"/>
</g>
</g>
<defs>
<linearGradient id="paint0_linear_125_153" x1="715.163" y1="99.467" x2="697.479" y2="285.084" gradientUnits="userSpaceOnUse">
<stop stop-color="#C0B9DD"/>
<stop offset="1" stop-color="#7445CF"/>
</linearGradient>
<linearGradient id="paint1_linear_125_153" x1="531.405" y1="-22.5667" x2="466.467" y2="275.795" gradientUnits="userSpaceOnUse">
<stop stop-color="#C0B9DD"/>
<stop offset="1" stop-color="#7245C9"/>
</linearGradient>
<linearGradient id="paint2_linear_125_153" x1="1248.93" y1="30.5032" x2="1318.06" y2="293.491" gradientUnits="userSpaceOnUse">
<stop stop-color="#C0B9DD"/>
<stop offset="1" stop-color="#5823B8"/>
</linearGradient>
<linearGradient id="paint3_linear_125_153" x1="903.124" y1="64.6536" x2="861.608" y2="483.4" gradientUnits="userSpaceOnUse">
<stop stop-color="#C0B9DD"/>
<stop offset="0.906208" stop-color="#6125CE"/>
</linearGradient>
<linearGradient id="paint4_linear_125_153" x1="118.512" y1="31.4978" x2="37.7379" y2="271.352" gradientUnits="userSpaceOnUse">
<stop stop-color="#C0B9DD"/>
<stop offset="1" stop-color="#7445CF"/>
</linearGradient>
<clipPath id="clip0_125_153">
<rect width="1670" height="311" fill="white" transform="translate(-115)"/>
</clipPath>
</defs>
</svg>
