<svg width="32" height="33" viewBox="0 0 32 33" fill="none" xmlns="http://www.w3.org/2000/svg">
<path fill-rule="evenodd" clip-rule="evenodd" d="M15.9999 2.8999C8.6358 2.8999 2.66602 8.87077 2.66602 16.2338C2.66602 23.5979 8.6358 29.5666 15.9999 29.5666C23.364 29.5666 29.3338 23.5979 29.3338 16.2338C29.3338 8.87077 23.3634 2.8999 15.9999 2.8999ZM19.5287 16.178H17.2198C17.2198 19.8676 17.2198 24.4122 17.2198 24.4122H13.7977C13.7977 24.4122 13.7977 19.9142 13.7977 16.178H12.17V13.2708H13.7977V11.387C13.7977 10.0387 14.4377 7.93401 17.2518 7.93401L19.7859 7.94376V10.7676C19.7859 10.7676 18.2449 10.7676 17.946 10.7676C17.6454 10.7676 17.2204 10.9176 17.2204 11.5587V13.2714H19.8292L19.5287 16.178Z" fill="black"/>
</svg>
