<svg width="480" height="326" viewBox="0 0 480 326" fill="none" xmlns="http://www.w3.org/2000/svg">
<path d="M214.396 272.679V325.354H153.524V294.32C154.845 297.779 170.341 295.571 186.877 289.244C201.755 283.549 213.243 276.546 214.396 272.679Z" fill="#FE5244"/>
<path d="M214.396 271.146C213.229 275.013 201.754 282.016 186.863 287.711C170.341 294.039 154.845 296.246 153.509 292.787C152.174 289.328 165.532 281.496 182.068 275.168C198.591 268.84 213.074 266.52 214.396 269.979C214.536 270.331 214.536 270.725 214.396 271.146Z" fill="#66B0F0"/>
<path d="M201.501 236.218V280.849L198.141 282.551C194.738 284.21 190.927 285.855 186.877 287.402C179.439 290.256 172.197 292.267 166.376 293.308L169.722 280.16L175.178 258.702C172.591 258.702 170.144 257.549 168.499 255.552L146.099 230.073C149.938 226.572 155.675 231.339 155.675 231.339L153.523 220.356C153.017 217.755 153.777 215.055 155.562 213.101L162.368 205.634C163.718 204.158 166.151 204.734 166.713 206.647L171.55 223.338C171.55 223.338 183.559 232.506 185.809 232.506C188.354 232.506 189.24 230.439 184.487 223.647C180.915 218.543 184.487 214.816 184.487 214.816L196.116 224.603C199.533 227.5 201.501 231.746 201.501 236.218Z" fill="white" stroke="#FFCF2D" stroke-width="5" stroke-miterlimit="10"/>
<path d="M175.867 233.616L167.36 226.81L162.706 210.752C162.171 208.91 159.907 208.362 158.614 209.782" stroke="#FFCF2D" stroke-width="5" stroke-miterlimit="10"/>
<path d="M170.299 236.612L162.903 230.593L158.501 215.393C157.995 213.649 155.773 213.129 154.55 214.479" stroke="#FFCF2D" stroke-width="5" stroke-miterlimit="10"/>
<path d="M163.76 238.144L155.661 231.353" stroke="#FFCF2D" stroke-width="5" stroke-miterlimit="10"/>
<path d="M175.178 258.702H184.642" stroke="#FFCF2D" stroke-width="5" stroke-miterlimit="10"/>
<path d="M201.501 269.347V281.144C197.311 283.366 192.319 285.616 186.877 287.711C179.425 290.565 172.183 292.576 166.348 293.617L169.722 280.455C173.463 278.655 177.653 276.856 182.082 275.168C189.24 272.44 196.017 270.443 201.501 269.347Z" fill="#FFCF2D"/>
<path d="M191.968 120.773L196.242 130.152C196.65 133.625 194.175 136.761 190.702 137.183C187.229 137.591 184.754 140.74 185.162 144.213L185.78 149.416" stroke="#FFCF2D" stroke-width="6" stroke-miterlimit="10"/>
<path d="M241.436 90.6392L263.962 55.4854L186.484 54.8667L161.103 122.446L203.006 120.478L241.436 90.6392Z" fill="#FE5244"/>
<path d="M264.891 52.8417L183.882 51.9277L156.983 122.854" stroke="#FFCF2D" stroke-width="6" stroke-miterlimit="10"/>
<path d="M240.044 85.3662C244.544 93.086 236.894 105.938 222.945 114.066C208.996 122.193 194.049 122.517 189.549 114.797C188.93 113.742 188.551 112.603 188.368 111.38C187.243 103.66 194.597 93.1141 206.648 86.0974C218.698 79.0807 231.494 77.8714 237.653 82.6523C238.624 83.4117 239.425 84.3116 240.044 85.3662Z" fill="#66B0F0" stroke="white" stroke-width="6" stroke-miterlimit="10"/>
<path d="M236.472 79.2354L240.044 85.3662C239.425 84.3116 238.624 83.4116 237.653 82.6523C231.494 77.8714 218.698 79.0807 206.648 86.0974C194.597 93.1141 187.257 103.66 188.368 111.38C188.536 112.603 188.93 113.742 189.549 114.797L185.977 108.666C181.478 100.946 189.127 88.0941 203.076 79.9666C217.011 71.8531 231.972 71.5156 236.472 79.2354Z" stroke="white" stroke-width="5" stroke-miterlimit="10" stroke-linecap="round"/>
<path d="M184.571 168.371C184.023 169.988 183.432 171.535 182.814 172.955C181.562 172.941 180.297 172.73 179.059 172.309C177.808 171.887 176.683 171.296 175.67 170.551C176.036 169.046 176.486 167.457 177.034 165.84C179.762 157.741 183.643 151.751 185.724 152.44C187.805 153.143 187.285 160.272 184.571 168.371Z" fill="#FFCF2D"/>
<path d="M186.005 152.468C186.945 152.468 187.707 151.706 187.707 150.766C187.707 149.827 186.945 149.065 186.005 149.065C185.066 149.065 184.304 149.827 184.304 150.766C184.304 151.706 185.066 152.468 186.005 152.468Z" stroke="#66B0F0" stroke-width="6" stroke-miterlimit="10"/>
<path d="M199.396 272.679V325.354H138.524V294.32C139.845 297.779 155.341 295.571 171.877 289.244C186.755 283.549 198.243 276.546 199.396 272.679Z" fill="#FE5244"/>
<path d="M199.396 271.146C198.229 275.013 186.754 282.016 171.863 287.711C155.341 294.039 139.845 296.246 138.509 292.787C137.174 289.328 150.532 281.496 167.068 275.168C183.591 268.84 198.074 266.52 199.396 269.979C199.536 270.331 199.536 270.725 199.396 271.146Z" fill="#66B0F0"/>
<path d="M186.501 236.218V280.849L183.141 282.551C179.738 284.21 175.927 285.855 171.877 287.402C164.439 290.256 157.197 292.267 151.376 293.308L154.722 280.16L160.178 258.702C157.591 258.702 155.144 257.549 153.499 255.552L131.099 230.073C134.938 226.572 140.675 231.339 140.675 231.339L138.523 220.356C138.017 217.755 138.777 215.055 140.562 213.101L147.368 205.634C148.718 204.158 151.151 204.734 151.713 206.647L156.55 223.338C156.55 223.338 168.559 232.506 170.809 232.506C173.354 232.506 174.24 230.439 169.487 223.647C165.915 218.543 169.487 214.816 169.487 214.816L181.116 224.603C184.533 227.5 186.501 231.746 186.501 236.218Z" fill="white" stroke="#FFCF2D" stroke-width="5" stroke-miterlimit="10"/>
<path d="M160.867 233.616L152.36 226.81L147.706 210.752C147.171 208.91 144.907 208.362 143.614 209.782" stroke="#FFCF2D" stroke-width="5" stroke-miterlimit="10"/>
<path d="M155.299 236.612L147.903 230.593L143.501 215.393C142.995 213.649 140.773 213.129 139.55 214.479" stroke="#FFCF2D" stroke-width="5" stroke-miterlimit="10"/>
<path d="M148.76 238.144L140.661 231.353" stroke="#FFCF2D" stroke-width="5" stroke-miterlimit="10"/>
<path d="M160.178 258.702H169.642" stroke="#FFCF2D" stroke-width="5" stroke-miterlimit="10"/>
<path d="M186.501 269.347V281.144C182.311 283.366 177.319 285.616 171.877 287.711C164.425 290.565 157.183 292.576 151.348 293.617L154.722 280.455C158.463 278.655 162.653 276.856 167.082 275.168C174.24 272.44 181.017 270.443 186.501 269.347Z" fill="#FFCF2D"/>
<path d="M176.968 120.773L181.242 130.152C181.65 133.625 179.175 136.761 175.702 137.183C172.229 137.591 169.754 140.74 170.162 144.213L170.78 149.416" stroke="#FFCF2D" stroke-width="6" stroke-miterlimit="10"/>
<path d="M226.436 90.6392L248.962 55.4854L171.484 54.8667L146.103 122.446L188.006 120.478L226.436 90.6392Z" fill="#FE5244"/>
<path d="M249.891 52.8417L168.882 51.9277L141.983 122.854" stroke="#FFCF2D" stroke-width="6" stroke-miterlimit="10"/>
<path d="M225.044 85.3662C229.544 93.086 221.894 105.938 207.945 114.066C193.996 122.193 179.049 122.517 174.549 114.797C173.93 113.742 173.551 112.603 173.368 111.38C172.243 103.66 179.597 93.1141 191.648 86.0974C203.698 79.0807 216.494 77.8714 222.653 82.6523C223.624 83.4117 224.425 84.3116 225.044 85.3662Z" fill="#66B0F0" stroke="white" stroke-width="6" stroke-miterlimit="10"/>
<path d="M221.472 79.2354L225.044 85.3662C224.425 84.3116 223.624 83.4116 222.653 82.6523C216.494 77.8714 203.698 79.0807 191.648 86.0974C179.597 93.1141 172.257 103.66 173.368 111.38C173.536 112.603 173.93 113.742 174.549 114.797L170.977 108.666C166.478 100.946 174.127 88.0941 188.076 79.9666C202.011 71.8531 216.972 71.5156 221.472 79.2354Z" stroke="white" stroke-width="5" stroke-miterlimit="10" stroke-linecap="round"/>
<path d="M169.571 168.371C169.023 169.988 168.432 171.535 167.814 172.955C166.562 172.941 165.297 172.73 164.059 172.309C162.808 171.887 161.683 171.296 160.67 170.551C161.036 169.046 161.486 167.457 162.034 165.84C164.762 157.741 168.643 151.751 170.724 152.44C172.805 153.143 172.285 160.272 169.571 168.371Z" fill="#FFCF2D"/>
<path d="M171.005 152.468C171.945 152.468 172.707 151.706 172.707 150.766C172.707 149.827 171.945 149.065 171.005 149.065C170.066 149.065 169.304 149.827 169.304 150.766C169.304 151.706 170.066 152.468 171.005 152.468Z" stroke="#66B0F0" stroke-width="6" stroke-miterlimit="10"/>
<path d="M456.953 280.308V324.869H387.166L400.764 256.441C400.328 259.142 409.032 264.208 420.942 269.286C425.217 271.11 429.983 272.92 435.074 274.635C443.286 277.418 450.851 279.309 456.953 280.308Z" fill="#9A3B82"/>
<path d="M456.953 266.909V278.836C450.851 277.837 443.3 275.959 435.06 273.177C415.641 266.625 400.693 258.535 401.537 254.901C401.551 254.847 401.565 254.793 401.579 254.753C402.887 251.2 420.084 253.658 439.77 260.291C446.098 262.425 451.807 264.626 456.602 266.747C456.714 266.801 456.827 266.855 456.953 266.909Z" fill="#FFCF2D"/>
<path d="M447.377 163.659C440.572 163.659 435.06 168.954 435.06 175.478V207.868C435.06 214.392 429.547 219.687 422.756 219.687H373.428C380.234 219.687 385.732 214.392 385.732 207.868V175.478C385.732 168.94 391.244 163.659 398.036 163.659H447.377Z" fill="white" stroke="#FFCF2D" stroke-width="5" stroke-miterlimit="10"/>
<path d="M425.807 180.421H394.394V208.422H425.807V180.421Z" fill="white" stroke="#FFCF2D" stroke-width="5" stroke-miterlimit="10"/>
<path d="M425.793 184.419H394.394" stroke="#FFCF2D" stroke-width="5" stroke-miterlimit="10"/>
<path d="M425.793 188.417H394.394" stroke="#FFCF2D" stroke-width="5" stroke-miterlimit="10"/>
<path d="M425.793 192.429H394.394" stroke="#FFCF2D" stroke-width="5" stroke-miterlimit="10"/>
<path d="M425.793 196.427H394.394" stroke="#FFCF2D" stroke-width="5" stroke-miterlimit="10"/>
<path d="M425.793 200.439H394.394" stroke="#FFCF2D" stroke-width="5" stroke-miterlimit="10"/>
<path d="M425.793 204.438H394.394" stroke="#FFCF2D" stroke-width="5" stroke-miterlimit="10"/>
<path d="M435.06 175.478C435.06 168.981 440.515 163.713 447.251 163.659C454 163.713 459.442 168.981 459.442 175.478H435.06Z" fill="#66B0F0" stroke="#FFCF2D" stroke-width="5" stroke-miterlimit="10"/>
<path d="M422.812 219.985C422.798 219.985 422.77 219.985 422.756 219.985H373.611C373.583 219.985 373.555 219.985 373.526 219.985C368.478 219.917 364.161 216.919 362.333 212.677H411.577C413.419 216.919 417.736 219.917 422.812 219.985Z" fill="#FFCF2D"/>
<path d="M396.447 177.207H390.766V172.831H393.438V175.262C393.438 175.316 393.466 175.356 393.494 175.37L393.508 175.383L396.447 177.207Z" fill="#FE5244"/>
<path d="M398.654 174.343V174.924C398.654 175.032 398.64 175.14 398.64 175.248C398.64 175.275 398.626 175.316 398.626 175.343C398.612 175.397 398.612 175.451 398.598 175.505C398.443 176.248 397.979 176.855 397.403 177.085C397.361 177.099 397.318 177.112 397.276 177.126C397.206 177.153 397.122 177.166 397.051 177.18C397.023 177.18 396.995 177.193 396.967 177.193L393.747 175.181C393.775 174.708 394.084 174.33 394.45 174.33H398.654V174.343Z" fill="#FE5244"/>
<path d="M430.026 172.831V177.207H424.345L427.27 175.383L427.284 175.37C427.298 175.356 427.298 175.356 427.312 175.356C427.312 175.343 427.326 175.343 427.326 175.329C427.326 175.329 427.326 175.316 427.34 175.316C427.34 175.302 427.34 175.302 427.354 175.302C427.354 175.302 427.354 175.302 427.354 175.289C427.354 175.275 427.354 175.275 427.354 175.262V172.831H430.026Z" fill="#FE5244"/>
<path d="M427.073 175.194L423.853 177.207C423.768 177.193 423.684 177.18 423.599 177.166C423.571 177.153 423.543 177.153 423.515 177.139C423.473 177.126 423.445 177.112 423.403 177.099C423.374 177.085 423.332 177.072 423.304 177.058C422.868 176.829 422.503 176.383 422.32 175.829C422.292 175.748 422.264 175.667 422.25 175.586C422.235 175.559 422.235 175.518 422.221 175.478C422.193 175.302 422.165 175.127 422.165 174.938V174.357H426.384C426.735 174.343 427.044 174.722 427.073 175.194Z" fill="#FE5244"/>
<path d="M427.073 170.615V174.424C427.044 174.397 427.016 174.357 426.988 174.33C426.932 174.276 426.876 174.235 426.82 174.195C426.679 174.114 426.524 174.06 426.37 174.06H394.436C394.267 174.06 394.112 174.114 393.986 174.195C393.93 174.235 393.873 174.276 393.817 174.33C393.789 174.357 393.761 174.384 393.733 174.424V170.615C393.733 170.102 394.042 169.697 394.436 169.697H426.37C426.749 169.697 427.073 170.116 427.073 170.615Z" fill="#FE5244"/>
<path d="M456.953 225.887V278.836H456.939C450.837 277.836 443.286 275.959 435.046 273.176C429.955 271.461 425.188 269.637 420.914 267.827L423.206 255.536L427.101 234.667C414.881 230.993 412.899 219.701 412.899 219.701H422.728C429.533 219.701 435.031 214.406 435.031 207.882V203.992H428.718C424.289 203.992 420.689 199.804 420.689 195.55V194.172H434.722C437.324 194.172 439.77 195.347 441.331 197.346L451.596 210.516C455.083 214.946 456.953 220.336 456.953 225.887Z" fill="#A0505A"/>
<path d="M456.953 266.909V278.836H456.939C450.836 277.836 443.285 275.959 435.045 273.176C429.955 271.461 425.188 269.637 420.914 267.827L423.206 255.536C428.268 256.724 433.892 258.332 439.742 260.304C446.07 262.438 451.779 264.64 456.559 266.76C456.714 266.801 456.827 266.855 456.953 266.909Z" fill="#73325A"/>
<path d="M435.678 203.992H428.901C424.471 203.992 420.871 199.804 420.871 195.55V194.172H435.678V203.992Z" fill="#A0505A"/>
<path d="M431.418 217.148C431.418 217.148 441.19 220.673 442.076 232.789" stroke="#73325A" stroke-width="5" stroke-miterlimit="10"/>
<path d="M427.129 234.951H433.78" stroke="#73325A" stroke-width="5" stroke-miterlimit="10"/>
<path d="M420.928 83.5063L425.385 80.6698C431.193 76.9823 438.969 80.6293 439.517 87.2884L440.487 99.0803C441.022 105.55 448.432 109.238 454.239 105.929L457.052 104.321" stroke="#FFCF2D" stroke-width="6" stroke-miterlimit="10"/>
<path d="M356.146 39.7017L413.419 71.633L442.259 133.834L409.172 112.425L373.217 71.9572L356.146 39.7017Z" fill="#9A3B82"/>
<path d="M356.301 37.5542L414.783 70.1745L444.242 133.686" stroke="#FFCF2D" stroke-width="6" stroke-miterlimit="10"/>
<path d="M408.574 113.799C411.251 111.629 405.237 100.558 395.142 89.0723C385.047 77.5866 374.694 70.035 372.018 72.2054C369.342 74.3758 375.356 85.4463 385.45 96.932C395.545 108.418 405.898 115.969 408.574 113.799Z" fill="white"/>
<path d="M406.948 114.463C409.571 112.336 403.672 101.481 393.773 90.2173C383.873 78.9539 373.722 71.5474 371.099 73.6745C368.476 75.8015 374.375 86.6567 384.275 97.9201C394.174 109.184 404.325 116.59 406.948 114.463Z" fill="white" stroke="#FFCF2D" stroke-width="5" stroke-miterlimit="10"/>
<path d="M413.925 109.427L408.469 113.844C409.482 113.02 409.257 110.94 408.033 108.035C406.023 103.254 401.312 96.2705 395.04 89.1117C388.755 81.9663 382.371 76.3337 377.801 73.6322C375.031 71.9843 372.922 71.417 371.909 72.241L377.365 67.8241C380.037 65.6494 390.864 72.7543 400.96 84.249C411.057 95.7438 416.611 107.266 413.925 109.427Z" fill="#FFCF2D"/>
<path d="M472.21 92.5289C473.757 91.813 475.261 91.1782 476.71 90.6514C477.567 91.5158 478.313 92.5289 478.889 93.6635C479.466 94.7981 479.831 95.9868 480 97.1619C478.664 97.9183 477.216 98.6747 475.683 99.3906C467.992 102.97 460.989 104.334 460.033 102.443C459.063 100.539 464.518 96.1083 472.21 92.5289Z" fill="#FFCF2D"/>
<path d="M458.627 105.01C459.566 105.01 460.328 104.278 460.328 103.376C460.328 102.473 459.566 101.741 458.627 101.741C457.687 101.741 456.925 102.473 456.925 103.376C456.925 104.278 457.687 105.01 458.627 105.01Z" stroke="#9A3B82" stroke-width="6" stroke-miterlimit="10"/>
<path d="M358.213 267.679V324.869H290.395L299.085 262.763C299.085 265.275 312.317 268.409 328.642 269.759C344.967 271.124 358.213 270.192 358.213 267.679Z" fill="#66B0F0"/>
<path d="M357.904 266.207C357.904 268.719 344.785 269.651 328.614 268.287C312.443 266.923 299.324 263.789 299.324 261.29C299.324 258.778 312.443 257.846 328.614 259.21C344.799 260.561 357.904 263.695 357.904 266.207Z" fill="#3FB1B5"/>
<path d="M367.311 139.427L371.417 141.98C375.523 145.032 369.842 158.675 358.734 172.425C347.625 186.189 335.293 194.861 331.187 191.808L329.162 189.971" stroke="#66B0F0" stroke-width="6" stroke-miterlimit="10"/>
<path d="M310.292 203.506L356.906 162.524L373.203 114.857L323.453 158.283L310.292 203.506Z" fill="#66B0F0"/>
<path d="M307.915 208.476L358.649 163.875L375.2 115.451" stroke="#FE5244" stroke-width="6" stroke-miterlimit="10" stroke-linecap="round"/>
<path d="M334.745 162.389L290.479 203.06C288.328 205.032 284.812 203.168 285.417 200.358L286.654 194.591C287.217 191.984 284.137 190.079 281.902 191.646L267.278 201.871" stroke="#FE5244" stroke-width="6" stroke-miterlimit="10"/>
<path d="M255.367 216.432C254.06 217.486 252.752 218.458 251.486 219.309C250.432 218.674 249.462 217.877 248.604 216.905C247.76 215.932 247.099 214.879 246.635 213.771C247.732 212.718 248.941 211.651 250.249 210.584C256.788 205.302 263.228 202.317 264.648 203.938C266.054 205.559 261.906 211.151 255.367 216.432Z" fill="#FFCF2D"/>
<path d="M265.914 204.492C266.853 204.492 267.615 203.76 267.615 202.858C267.615 201.955 266.853 201.223 265.914 201.223C264.974 201.223 264.212 201.955 264.212 202.858C264.212 203.76 264.974 204.492 265.914 204.492Z" stroke="#FE5244" stroke-width="6" stroke-miterlimit="10"/>
<path d="M336.84 224.631V268.8C334.238 268.692 331.468 268.53 328.614 268.287C318.082 267.409 308.857 265.761 303.697 264.032L304.47 259.142L307.058 242.731H303.711C298.944 242.731 295.091 239.03 295.091 234.451V218.188C295.091 214.973 296.3 211.88 298.508 209.462L309.518 197.373C310.235 196.59 311.585 197.076 311.585 198.116V214.555C311.585 216.527 310.854 218.431 309.518 219.931L308.534 221.038H320.486C322.216 221.038 323.228 219.188 322.258 217.81C320.782 215.743 318.841 212.799 316.999 209.395C313.329 202.655 319.699 198.886 319.699 198.886L334.281 217.053C335.94 219.255 336.84 221.916 336.84 224.631Z" fill="#FFCF2D"/>
<path d="M311.585 197.238V214.554C311.585 216.526 310.854 218.431 309.518 219.93L308.534 221.038" stroke="white" stroke-width="5" stroke-miterlimit="10" stroke-linecap="round"/>
<path d="M308.534 221.025L300.631 229.548" stroke="white" stroke-width="5" stroke-miterlimit="10" stroke-linecap="round"/>
<path d="M311.585 207.031C311.585 209.003 310.854 210.908 309.518 212.407L308.534 213.515L300.645 222.024" stroke="white" stroke-width="5" stroke-miterlimit="10" stroke-linecap="round"/>
<path d="M311.585 199.521C311.585 201.493 310.854 203.398 309.518 204.897L308.534 206.005L300.645 214.514" stroke="white" stroke-width="5" stroke-miterlimit="10" stroke-linecap="round"/>
<path d="M307.057 243.177H313.118" stroke="white" stroke-width="5" stroke-miterlimit="10" stroke-linecap="round"/>
<path d="M336.84 260.074V268.8C334.238 268.692 331.468 268.53 328.614 268.287C318.082 267.409 308.857 265.761 303.697 264.032L304.47 259.142C309.757 258.399 318.602 258.359 328.628 259.196C331.468 259.453 334.224 259.737 336.84 260.074Z" fill="#FE5244"/>
<path d="M63.3155 269.529V324.815H0.0949707V243.446C1.33238 247.431 14.5643 255.738 30.9881 262.681C48.4665 270.096 62.9499 273.149 63.3155 269.529Z" fill="#66B0F0"/>
<path d="M63.3154 268.057C62.9358 271.677 48.4665 268.61 30.988 261.208C14.5642 254.252 1.33233 245.945 0.0949195 241.974C0.0105505 241.717 -0.0175777 241.474 0.0105453 241.258C0.376144 237.638 14.8595 240.704 32.338 248.106C49.8164 255.508 63.6951 264.437 63.3154 268.057Z" fill="#9A3B82"/>
<path d="M25.8979 188.755C27.4025 185.784 30.5382 183.893 33.9833 183.893H43.9248L44.4451 222.28L51.3774 257.562L53.585 268.773C47.7355 267.53 39.7485 264.923 31.0023 261.222C26.0526 259.129 19.8515 256.022 15.7174 253.834V207.125C15.7174 206.49 15.844 205.856 16.0689 205.261L25.8979 188.755Z" fill="#A0505A"/>
<path d="M53.5708 268.773C47.7212 267.53 39.7342 264.923 30.988 261.222C26.0383 259.128 19.8372 256.022 15.7031 253.834V242.096C20.2169 243.487 26.8961 245.81 32.3379 248.106C39.678 251.213 46.09 254.414 51.3772 257.562L53.5708 268.773Z" fill="#73325A"/>
<path d="M90.5948 140.736L37.7094 234.207C35.7549 237.665 30.3693 238.489 25.6869 236.044C21.0044 233.599 18.7967 228.818 20.7513 225.346L73.6366 131.875L90.5948 140.736Z" fill="white" stroke="#FFCF2D" stroke-width="5" stroke-miterlimit="10"/>
<path d="M90.5848 140.759C92.5428 137.299 90.3356 132.512 85.6549 130.069C80.9742 127.625 75.5925 128.45 73.6345 131.91C71.6766 135.371 73.8838 140.157 78.5645 142.601C83.2452 145.044 88.6269 144.22 90.5848 140.759Z" fill="#66B0F0" stroke="#FFCF2D" stroke-width="5" stroke-miterlimit="10"/>
<path d="M56.0458 176.518L81.0331 156.918L80.6393 163.888L88.6403 165.806L70.4166 176.612C75.31 175.802 81.2018 175.14 86.053 175.505C91.8323 175.937 89.8918 182.434 87.7263 187.985C92.7885 187.513 109.761 177.639 116.159 179.503C120.068 180.637 118.662 188.296 117.537 192.524C119.168 192.605 127.422 192.51 127.422 192.51L123.063 196.333L125.453 200.155C116.173 200.547 116.06 199.142 117.227 192.821C117.424 185.946 109.494 192.551 92.6057 196.427C84.2391 198.345 85.3218 193.118 87.3889 187.675C86.5592 185.176 80.3581 182.461 60.433 187.459L56.0458 176.518Z" fill="#FE5244"/>
<path d="M56.4113 188.458C60.4885 188.458 63.7936 185.283 63.7936 181.367C63.7936 177.45 60.4885 174.275 56.4113 174.275C52.3342 174.275 49.0291 177.45 49.0291 181.367C49.0291 185.283 52.3342 188.458 56.4113 188.458Z" fill="white" stroke="#FE5244" stroke-width="5" stroke-miterlimit="10"/>
<path d="M53.866 183.893V184.338C53.866 188.877 50.0413 192.564 45.3026 192.564H36.3173V183.893H53.866Z" fill="#A0505A"/>
<path d="M64.806 200.547L62.4296 205.896L59.6595 212.15L58.1549 215.54L55.8629 220.714C55.8066 220.849 55.7222 220.997 55.6519 221.119C55.6519 221.133 55.6379 221.133 55.6379 221.146C54.9067 222.362 53.4865 223.118 51.9256 223.118H33.716C31.5083 223.118 30.0038 221.106 30.8193 219.255L32.1411 216.27L35.0518 209.705L37.5548 204.046L39.7624 199.075C40.4093 197.616 41.9701 196.657 43.7137 196.657H61.9234C64.117 196.684 65.6215 198.697 64.806 200.547Z" fill="#A0505A"/>
<path d="M38.3141 204.073C39.0734 203.262 40.1702 202.776 41.3514 202.776H58.7455C60.5735 202.776 61.8952 204.289 61.7124 205.896" stroke="#73325A" stroke-width="5" stroke-miterlimit="10" stroke-linecap="round"/>
<path d="M35.9518 209.732C36.697 209.016 37.7235 208.598 38.8344 208.598H56.2285C58.2252 208.598 59.6032 210.381 59.097 212.137" stroke="#73325A" stroke-width="5" stroke-miterlimit="10" stroke-linecap="round"/>
<path d="M33.2238 216.283C33.969 215.608 34.9674 215.216 36.0361 215.216H53.4301C55.4831 215.216 56.9033 217.134 56.2424 218.944" stroke="#73325A" stroke-width="5" stroke-miterlimit="10" stroke-linecap="round"/>
<path d="M96.1209 43.4434C97.2881 42.2413 98.4551 41.1201 99.6082 40.1206C100.733 40.6204 101.802 41.3093 102.772 42.1737C103.728 43.0382 104.53 44.0107 105.134 45.0508C104.178 46.2259 103.11 47.4281 101.942 48.6302C96.1209 54.641 90.1167 58.3555 88.4996 56.9237C86.8966 55.492 90.2995 49.4542 96.1209 43.4434Z" fill="#FFCF2D"/>
<path d="M55.2582 91.0433L53.4021 92.151C46.6667 96.1626 33.5473 87.5314 24.112 72.876C14.6627 58.2205 12.4691 43.1058 19.1905 39.0941L21.1028 37.9595L32.4786 70.1069L55.2582 91.0433Z" fill="#66B0F0"/>
<path d="M74.1007 108.373L55.2583 91.043L32.4646 70.0931L21.0888 37.9591L10.9224 9.229L58.2674 45.8744L74.1007 108.373Z" fill="#66B0F0" stroke="white" stroke-width="6" stroke-miterlimit="10"/>
<path d="M75.5771 106.658L59.8563 44.2672L11.9207 8" stroke="#9A3B82" stroke-width="6" stroke-miterlimit="10"/>
<path d="M49.0852 64.1903C47.8759 59.3817 50.9553 54.5326 55.9612 53.371C60.714 52.2633 65.5371 54.8703 67.0276 59.3277L70.9789 71.5789C73.1585 78.3595 83.3249 77.8328 84.7451 70.863L87.0231 59.6113" stroke="#FFCF2D" stroke-width="6" stroke-miterlimit="10"/>
<path d="M87.5575 59.9226C88.4972 59.9226 89.259 59.1909 89.259 58.2882C89.259 57.3856 88.4972 56.6538 87.5575 56.6538C86.6178 56.6538 85.8561 57.3856 85.8561 58.2882C85.8561 59.1909 86.6178 59.9226 87.5575 59.9226Z" stroke="#66B0F0" stroke-width="6" stroke-miterlimit="10"/>
</svg>
