<svg width="32" height="33" viewBox="0 0 32 33" fill="none" xmlns="http://www.w3.org/2000/svg">
<path fill-rule="evenodd" clip-rule="evenodd" d="M2.66602 16.2332C2.66602 8.86196 8.62808 2.8999 15.9993 2.8999C23.3706 2.8999 29.3869 8.86196 29.3327 16.2332C29.3327 23.6045 23.3706 29.5666 15.9993 29.5666C8.62808 29.5666 2.66602 23.6045 2.66602 16.2332ZM21.9072 22.4663C22.666 21.7075 23.0996 20.6235 23.0996 19.3769V13.4148C23.0996 12.1682 22.7202 11.1384 21.9614 10.3796C21.2026 9.62077 20.1728 9.18716 18.9262 9.18716H12.9641C10.4167 9.18716 8.73648 10.9216 8.73648 13.4148V19.3769C8.73648 20.6235 9.11588 21.7075 9.92889 22.4663C10.6877 23.2251 11.7717 23.6045 12.9641 23.6045H18.872C20.0644 23.6045 21.1484 23.2251 21.9072 22.4663ZM19.7392 13.3606C19.2514 13.3606 18.872 12.9812 18.872 12.4934C18.872 12.0056 19.2514 11.6262 19.7392 11.6262C20.227 11.6262 20.6064 12.0056 20.6064 12.4934C20.6064 12.9812 20.227 13.3606 19.7392 13.3606ZM15.8909 12.656C17.8964 12.656 19.6308 14.282 19.6308 16.3416C19.6308 18.4013 17.9506 20.0273 15.8909 20.0273C13.8313 20.0273 12.2053 18.3471 12.2053 16.3416C12.2053 14.282 13.8855 12.656 15.8909 12.656ZM15.8909 13.9893C14.6001 13.9893 13.5386 15.0401 13.5386 16.3416C13.5386 17.6325 14.5894 18.6939 15.8909 18.6939C17.2307 18.6939 18.2975 17.6485 18.2975 16.3416C18.2975 15.056 17.1981 13.9893 15.8909 13.9893Z" fill="black"/>
</svg>
