<svg width="517" height="193" viewBox="0 0 517 193" fill="none" xmlns="http://www.w3.org/2000/svg">
<path d="M7.032 7.92V16.32H18.312V21.648H7.032V30.528H19.752V36H0.312V2.448H19.752V7.92H7.032ZM40.5469 36L35.0749 27.744L30.2269 36H23.0269L31.7149 22.656L22.9309 9.408H30.5149L35.9389 17.616L40.8349 9.408H48.0349L39.2989 22.656L48.1309 36H40.5469ZM58.5008 13.248C59.3648 12.032 60.5488 11.024 62.0528 10.224C63.5888 9.392 65.3328 8.976 67.2848 8.976C69.5568 8.976 71.6048 9.536 73.4288 10.656C75.2848 11.776 76.7408 13.376 77.7968 15.456C78.8848 17.504 79.4288 19.888 79.4288 22.608C79.4288 25.328 78.8848 27.744 77.7968 29.856C76.7408 31.936 75.2848 33.552 73.4288 34.704C71.6048 35.856 69.5568 36.432 67.2848 36.432C65.3328 36.432 63.6048 36.032 62.1008 35.232C60.6288 34.432 59.4288 33.424 58.5008 32.208V48.672H51.7808V9.408H58.5008V13.248ZM72.5648 22.608C72.5648 21.008 72.2288 19.632 71.5568 18.48C70.9168 17.296 70.0528 16.4 68.9648 15.792C67.9088 15.184 66.7568 14.88 65.5088 14.88C64.2928 14.88 63.1408 15.2 62.0528 15.84C60.9968 16.448 60.1328 17.344 59.4608 18.528C58.8208 19.712 58.5008 21.104 58.5008 22.704C58.5008 24.304 58.8208 25.696 59.4608 26.88C60.1328 28.064 60.9968 28.976 62.0528 29.616C63.1408 30.224 64.2928 30.528 65.5088 30.528C66.7568 30.528 67.9088 30.208 68.9648 29.568C70.0528 28.928 70.9168 28.016 71.5568 26.832C72.2288 25.648 72.5648 24.24 72.5648 22.608ZM82.584 22.608C82.584 19.92 83.112 17.536 84.168 15.456C85.256 13.376 86.712 11.776 88.536 10.656C90.392 9.536 92.456 8.976 94.728 8.976C96.712 8.976 98.44 9.376 99.912 10.176C101.416 10.976 102.616 11.984 103.512 13.2V9.408H110.28V36H103.512V32.112C102.648 33.36 101.448 34.4 99.912 35.232C98.408 36.032 96.664 36.432 94.68 36.432C92.44 36.432 90.392 35.856 88.536 34.704C86.712 33.552 85.256 31.936 84.168 29.856C83.112 27.744 82.584 25.328 82.584 22.608ZM103.512 22.704C103.512 21.072 103.192 19.68 102.552 18.528C101.912 17.344 101.048 16.448 99.96 15.84C98.872 15.2 97.704 14.88 96.456 14.88C95.208 14.88 94.056 15.184 93 15.792C91.944 16.4 91.08 17.296 90.408 18.48C89.768 19.632 89.448 21.008 89.448 22.608C89.448 24.208 89.768 25.616 90.408 26.832C91.08 28.016 91.944 28.928 93 29.568C94.088 30.208 95.24 30.528 96.456 30.528C97.704 30.528 98.872 30.224 99.96 29.616C101.048 28.976 101.912 28.08 102.552 26.928C103.192 25.744 103.512 24.336 103.512 22.704ZM131.579 9.024C134.747 9.024 137.307 10.032 139.259 12.048C141.211 14.032 142.187 16.816 142.187 20.4V36H135.467V21.312C135.467 19.2 134.939 17.584 133.883 16.464C132.827 15.312 131.387 14.736 129.563 14.736C127.707 14.736 126.235 15.312 125.147 16.464C124.091 17.584 123.563 19.2 123.563 21.312V36H116.843V9.408H123.563V12.72C124.459 11.568 125.595 10.672 126.971 10.032C128.379 9.36 129.915 9.024 131.579 9.024ZM146.85 22.608C146.85 19.92 147.378 17.536 148.434 15.456C149.522 13.376 150.994 11.776 152.85 10.656C154.706 9.536 156.77 8.976 159.042 8.976C160.77 8.976 162.418 9.36 163.986 10.128C165.554 10.864 166.802 11.856 167.73 13.104V0.48H174.546V36H167.73V32.064C166.898 33.376 165.73 34.432 164.226 35.232C162.722 36.032 160.978 36.432 158.994 36.432C156.754 36.432 154.706 35.856 152.85 34.704C150.994 33.552 149.522 31.936 148.434 29.856C147.378 27.744 146.85 25.328 146.85 22.608ZM167.778 22.704C167.778 21.072 167.458 19.68 166.818 18.528C166.178 17.344 165.314 16.448 164.226 15.84C163.138 15.2 161.97 14.88 160.722 14.88C159.474 14.88 158.322 15.184 157.266 15.792C156.21 16.4 155.346 17.296 154.674 18.48C154.034 19.632 153.714 21.008 153.714 22.608C153.714 24.208 154.034 25.616 154.674 26.832C155.346 28.016 156.21 28.928 157.266 29.568C158.354 30.208 159.506 30.528 160.722 30.528C161.97 30.528 163.138 30.224 164.226 29.616C165.314 28.976 166.178 28.08 166.818 26.928C167.458 25.744 167.778 24.336 167.778 22.704ZM219.186 2.496L207.858 24.336V36H201.138V24.336L189.762 2.496H197.346L204.546 17.808L211.698 2.496H219.186ZM234.87 36.432C232.31 36.432 230.006 35.872 227.958 34.752C225.91 33.6 224.294 31.984 223.11 29.904C221.958 27.824 221.382 25.424 221.382 22.704C221.382 19.984 221.974 17.584 223.158 15.504C224.374 13.424 226.022 11.824 228.102 10.704C230.182 9.552 232.502 8.976 235.062 8.976C237.622 8.976 239.942 9.552 242.022 10.704C244.102 11.824 245.734 13.424 246.918 15.504C248.134 17.584 248.742 19.984 248.742 22.704C248.742 25.424 248.118 27.824 246.87 29.904C245.654 31.984 243.99 33.6 241.878 34.752C239.798 35.872 237.462 36.432 234.87 36.432ZM234.87 30.576C236.086 30.576 237.222 30.288 238.278 29.712C239.366 29.104 240.23 28.208 240.87 27.024C241.51 25.84 241.83 24.4 241.83 22.704C241.83 20.176 241.158 18.24 239.814 16.896C238.502 15.52 236.886 14.832 234.966 14.832C233.046 14.832 231.43 15.52 230.118 16.896C228.838 18.24 228.198 20.176 228.198 22.704C228.198 25.232 228.822 27.184 230.07 28.56C231.35 29.904 232.95 30.576 234.87 30.576ZM278.775 9.408V36H272.007V32.64C271.143 33.792 270.007 34.704 268.599 35.376C267.223 36.016 265.719 36.336 264.087 36.336C262.007 36.336 260.167 35.904 258.567 35.04C256.967 34.144 255.703 32.848 254.775 31.152C253.879 29.424 253.431 27.376 253.431 25.008V9.408H260.151V24.048C260.151 26.16 260.679 27.792 261.735 28.944C262.791 30.064 264.231 30.624 266.055 30.624C267.911 30.624 269.367 30.064 270.423 28.944C271.479 27.792 272.007 26.16 272.007 24.048V9.408H278.775ZM292.126 13.536C292.99 12.128 294.11 11.024 295.486 10.224C296.894 9.424 298.494 9.024 300.286 9.024V16.08H298.51C296.398 16.08 294.798 16.576 293.71 17.568C292.654 18.56 292.126 20.288 292.126 22.752V36H285.406V9.408H292.126V13.536ZM7.032 174.672H18.072V180H0.312V146.496H7.032V174.672ZM47.0633 166.128C47.0633 167.088 46.9993 167.952 46.8713 168.72H27.4313C27.5913 170.64 28.2633 172.144 29.4473 173.232C30.6313 174.32 32.0873 174.864 33.8153 174.864C36.3113 174.864 38.0873 173.792 39.1433 171.648H46.3913C45.6233 174.208 44.1513 176.32 41.9753 177.984C39.7993 179.616 37.1273 180.432 33.9593 180.432C31.3993 180.432 29.0953 179.872 27.0473 178.752C25.0313 177.6 23.4473 175.984 22.2953 173.904C21.1753 171.824 20.6152 169.424 20.6152 166.704C20.6152 163.952 21.1753 161.536 22.2953 159.456C23.4153 157.376 24.9833 155.776 26.9993 154.656C29.0153 153.536 31.3353 152.976 33.9593 152.976C36.4873 152.976 38.7433 153.52 40.7273 154.608C42.7433 155.696 44.2953 157.248 45.3833 159.264C46.5033 161.248 47.0633 163.536 47.0633 166.128ZM40.1033 164.208C40.0713 162.48 39.4473 161.104 38.2313 160.08C37.0153 159.024 35.5273 158.496 33.7673 158.496C32.1033 158.496 30.6953 159.008 29.5433 160.032C28.4233 161.024 27.7353 162.416 27.4793 164.208H40.1033ZM50.2402 166.608C50.2402 163.92 50.7682 161.536 51.8242 159.456C52.9123 157.376 54.3683 155.776 56.1923 154.656C58.0483 153.536 60.1123 152.976 62.3843 152.976C64.3683 152.976 66.0963 153.376 67.5683 154.176C69.0723 154.976 70.2723 155.984 71.1683 157.2V153.408H77.9363V180H71.1683V176.112C70.3043 177.36 69.1043 178.4 67.5683 179.232C66.0643 180.032 64.3203 180.432 62.3363 180.432C60.0963 180.432 58.0483 179.856 56.1923 178.704C54.3683 177.552 52.9123 175.936 51.8242 173.856C50.7682 171.744 50.2402 169.328 50.2402 166.608ZM71.1683 166.704C71.1683 165.072 70.8483 163.68 70.2083 162.528C69.5683 161.344 68.7043 160.448 67.6163 159.84C66.5283 159.2 65.3603 158.88 64.1123 158.88C62.8643 158.88 61.7123 159.184 60.6562 159.792C59.6003 160.4 58.7363 161.296 58.0643 162.48C57.4243 163.632 57.1043 165.008 57.1043 166.608C57.1043 168.208 57.4243 169.616 58.0643 170.832C58.7363 172.016 59.6003 172.928 60.6562 173.568C61.7443 174.208 62.8963 174.528 64.1123 174.528C65.3603 174.528 66.5283 174.224 67.6163 173.616C68.7043 172.976 69.5683 172.08 70.2083 170.928C70.8483 169.744 71.1683 168.336 71.1683 166.704ZM91.2195 157.536C92.0835 156.128 93.2035 155.024 94.5795 154.224C95.9875 153.424 97.5875 153.024 99.3795 153.024V160.08H97.6035C95.4915 160.08 93.8915 160.576 92.8035 161.568C91.7475 162.56 91.2195 164.288 91.2195 166.752V180H84.4995V153.408H91.2195V157.536ZM118.642 153.024C121.81 153.024 124.37 154.032 126.322 156.048C128.274 158.032 129.25 160.816 129.25 164.4V180H122.53V165.312C122.53 163.2 122.002 161.584 120.946 160.464C119.89 159.312 118.45 158.736 116.626 158.736C114.77 158.736 113.298 159.312 112.21 160.464C111.154 161.584 110.626 163.2 110.626 165.312V180H103.906V153.408H110.626V156.72C111.522 155.568 112.658 154.672 114.034 154.032C115.442 153.36 116.978 153.024 118.642 153.024ZM159.27 158.928H154.614V180H147.798V158.928H144.774V153.408H147.798V152.064C147.798 148.8 148.726 146.4 150.582 144.864C152.438 143.328 155.238 142.608 158.982 142.704V148.368C157.35 148.336 156.214 148.608 155.574 149.184C154.934 149.76 154.614 150.8 154.614 152.304V153.408H159.27V158.928ZM170.345 157.536C171.209 156.128 172.329 155.024 173.705 154.224C175.113 153.424 176.713 153.024 178.505 153.024V160.08H176.729C174.617 160.08 173.017 160.576 171.929 161.568C170.873 162.56 170.345 164.288 170.345 166.752V180H163.625V153.408H170.345V157.536ZM194.839 180.432C192.279 180.432 189.975 179.872 187.927 178.752C185.879 177.6 184.263 175.984 183.079 173.904C181.927 171.824 181.351 169.424 181.351 166.704C181.351 163.984 181.943 161.584 183.127 159.504C184.343 157.424 185.991 155.824 188.071 154.704C190.151 153.552 192.471 152.976 195.031 152.976C197.591 152.976 199.911 153.552 201.991 154.704C204.071 155.824 205.703 157.424 206.887 159.504C208.103 161.584 208.711 163.984 208.711 166.704C208.711 169.424 208.087 171.824 206.839 173.904C205.623 175.984 203.959 177.6 201.847 178.752C199.767 179.872 197.431 180.432 194.839 180.432ZM194.839 174.576C196.055 174.576 197.191 174.288 198.247 173.712C199.335 173.104 200.199 172.208 200.839 171.024C201.479 169.84 201.799 168.4 201.799 166.704C201.799 164.176 201.127 162.24 199.783 160.896C198.471 159.52 196.855 158.832 194.935 158.832C193.015 158.832 191.399 159.52 190.087 160.896C188.807 162.24 188.167 164.176 188.167 166.704C188.167 169.232 188.791 171.184 190.039 172.56C191.319 173.904 192.919 174.576 194.839 174.576ZM246.664 153.024C249.928 153.024 252.552 154.032 254.536 156.048C256.552 158.032 257.56 160.816 257.56 164.4V180H250.84V165.312C250.84 163.232 250.312 161.648 249.256 160.56C248.2 159.44 246.76 158.88 244.936 158.88C243.112 158.88 241.656 159.44 240.568 160.56C239.512 161.648 238.984 163.232 238.984 165.312V180H232.264V165.312C232.264 163.232 231.736 161.648 230.68 160.56C229.624 159.44 228.184 158.88 226.36 158.88C224.504 158.88 223.032 159.44 221.944 160.56C220.888 161.648 220.36 163.232 220.36 165.312V180H213.64V153.408H220.36V156.624C221.224 155.504 222.328 154.624 223.672 153.984C225.048 153.344 226.552 153.024 228.184 153.024C230.264 153.024 232.12 153.472 233.752 154.368C235.384 155.232 236.648 156.48 237.544 158.112C238.408 156.576 239.656 155.344 241.288 154.416C242.952 153.488 244.744 153.024 246.664 153.024ZM295.919 173.616H282.575L280.367 180H273.311L285.359 146.448H293.183L305.231 180H298.127L295.919 173.616ZM294.095 168.24L289.247 154.224L284.398 168.24H294.095ZM324.47 153.024C327.638 153.024 330.198 154.032 332.15 156.048C334.102 158.032 335.078 160.816 335.078 164.4V180H328.358V165.312C328.358 163.2 327.83 161.584 326.774 160.464C325.718 159.312 324.278 158.736 322.454 158.736C320.598 158.736 319.126 159.312 318.038 160.464C316.982 161.584 316.454 163.2 316.454 165.312V180H309.734V153.408H316.454V156.72C317.35 155.568 318.486 154.672 319.862 154.032C321.27 153.36 322.806 153.024 324.47 153.024ZM366.908 153.408L350.444 192.576H343.292L349.052 179.328L338.396 153.408H345.932L352.796 171.984L359.756 153.408H366.908ZM407.395 153.408L399.619 180H392.371L387.523 161.424L382.675 180H375.379L367.555 153.408H374.371L379.075 173.664L384.163 153.408H391.267L396.259 173.616L400.963 153.408H407.395ZM426.007 153.024C428.023 153.024 429.815 153.472 431.383 154.368C432.951 155.232 434.167 156.528 435.031 158.256C435.927 159.952 436.375 162 436.375 164.4V180H429.655V165.312C429.655 163.2 429.127 161.584 428.071 160.464C427.015 159.312 425.575 158.736 423.751 158.736C421.895 158.736 420.423 159.312 419.335 160.464C418.279 161.584 417.751 163.2 417.751 165.312V180H411.031V144.48H417.751V156.72C418.615 155.568 419.767 154.672 421.207 154.032C422.647 153.36 424.247 153.024 426.007 153.024ZM467.485 166.128C467.485 167.088 467.421 167.952 467.293 168.72H447.853C448.013 170.64 448.685 172.144 449.869 173.232C451.053 174.32 452.509 174.864 454.237 174.864C456.733 174.864 458.509 173.792 459.565 171.648H466.813C466.045 174.208 464.573 176.32 462.397 177.984C460.221 179.616 457.549 180.432 454.381 180.432C451.821 180.432 449.517 179.872 447.469 178.752C445.453 177.6 443.869 175.984 442.717 173.904C441.597 171.824 441.037 169.424 441.037 166.704C441.037 163.952 441.597 161.536 442.717 159.456C443.837 157.376 445.405 155.776 447.421 154.656C449.437 153.536 451.757 152.976 454.381 152.976C456.909 152.976 459.165 153.52 461.149 154.608C463.165 155.696 464.717 157.248 465.805 159.264C466.925 161.248 467.485 163.536 467.485 166.128ZM460.525 164.208C460.493 162.48 459.869 161.104 458.653 160.08C457.437 159.024 455.949 158.496 454.189 158.496C452.525 158.496 451.117 159.008 449.965 160.032C448.845 161.024 448.157 162.416 447.901 164.208H460.525ZM479.11 157.536C479.974 156.128 481.094 155.024 482.47 154.224C483.878 153.424 485.478 153.024 487.27 153.024V160.08H485.494C483.382 160.08 481.782 160.576 480.694 161.568C479.638 162.56 479.11 164.288 479.11 166.752V180H472.39V153.408H479.11V157.536ZM516.516 166.128C516.516 167.088 516.452 167.952 516.324 168.72H496.884C497.044 170.64 497.716 172.144 498.9 173.232C500.084 174.32 501.54 174.864 503.268 174.864C505.764 174.864 507.54 173.792 508.596 171.648H515.844C515.076 174.208 513.604 176.32 511.428 177.984C509.252 179.616 506.58 180.432 503.412 180.432C500.852 180.432 498.548 179.872 496.5 178.752C494.484 177.6 492.9 175.984 491.748 173.904C490.628 171.824 490.068 169.424 490.068 166.704C490.068 163.952 490.628 161.536 491.748 159.456C492.868 157.376 494.436 155.776 496.452 154.656C498.468 153.536 500.788 152.976 503.412 152.976C505.94 152.976 508.196 153.52 510.18 154.608C512.196 155.696 513.748 157.248 514.836 159.264C515.956 161.248 516.516 163.536 516.516 166.128ZM509.556 164.208C509.524 162.48 508.9 161.104 507.684 160.08C506.468 159.024 504.98 158.496 503.22 158.496C501.556 158.496 500.148 159.008 498.996 160.032C497.876 161.024 497.188 162.416 496.932 164.208H509.556Z" fill="black"/>
<path d="M53.1713 108H41.2193V106.128C42.9473 105.84 44.0193 105.52 44.4353 105.168C44.8513 104.816 45.1553 104.144 45.3473 103.152L47.2673 92.304H32.2913L30.3713 103.056C30.2753 103.44 30.2273 103.936 30.2273 104.544C30.2273 105.12 30.5953 105.488 31.3313 105.648L33.7793 106.128L33.5393 108H21.5873V106.128C23.3153 105.84 24.3873 105.52 24.8033 105.168C25.2193 104.816 25.5233 104.144 25.7153 103.152L29.8433 79.584C29.9393 79.136 29.9873 78.72 29.9873 78.336C29.9873 77.92 29.7633 77.584 29.3153 77.328C28.8993 77.072 28.0353 76.832 26.7233 76.608L27.0113 74.736H39.1073L38.9633 76.608L35.8913 77.184C35.3473 77.312 34.9953 77.536 34.8353 77.856C34.8033 77.984 34.7713 78.176 34.7393 78.432L32.7713 89.424H47.7473L49.4753 79.584C49.5713 79.136 49.6193 78.72 49.6193 78.336C49.6193 77.92 49.3953 77.584 48.9473 77.328C48.5313 77.072 47.6673 76.832 46.3553 76.608L46.6433 74.736H58.7393L58.5953 76.608L55.5233 77.184C54.9793 77.312 54.6433 77.536 54.5153 77.856C54.4513 77.984 54.4033 78.176 54.3713 78.432L50.0033 103.152C49.9073 103.728 49.8593 104.096 49.8593 104.256C49.8593 104.992 50.1793 105.44 50.8193 105.6L53.4113 106.128L53.1713 108ZM75.0158 103.2C73.9918 104.736 72.6478 106 70.9838 106.992C69.3518 107.952 67.4158 108.432 65.1758 108.432C62.9358 108.432 61.1598 107.728 59.8478 106.32C58.5678 104.88 57.9277 102.88 57.9277 100.32C57.9277 96.64 58.9678 93.152 61.0478 89.856C62.0398 88.288 63.3678 87.024 65.0318 86.064C66.6958 85.072 68.6478 84.576 70.8878 84.576C73.1278 84.576 74.9038 85.296 76.2158 86.736C77.5278 88.176 78.1838 90.192 78.1838 92.784C78.1838 96.56 77.1278 100.032 75.0158 103.2ZM62.4398 99.456C62.4398 103.744 63.8638 105.888 66.7118 105.888C68.1518 105.888 69.3998 105.472 70.4557 104.64C71.0958 104.128 71.7838 102.672 72.5198 100.272C73.2878 97.872 73.6718 95.536 73.6718 93.264C73.6718 89.168 72.2318 87.12 69.3518 87.12C67.9438 87.12 66.7118 87.536 65.6558 88.368C65.0158 88.88 64.3118 90.336 63.5438 92.736C62.8078 95.136 62.4398 97.376 62.4398 99.456ZM96.645 89.904L93.429 89.28C93.109 89.28 92.661 89.632 92.085 90.336C90.805 91.84 89.429 94.288 87.957 97.68C86.485 101.04 85.749 104.4 85.749 107.76C84.309 107.824 82.997 108.048 81.813 108.432L81.045 107.808C81.621 106.016 82.149 103.856 82.629 101.328L84.693 89.904C84.757 89.584 84.789 89.248 84.789 88.896C84.789 88.256 83.557 87.712 81.093 87.264L81.333 85.728C84.949 85.28 87.477 85.056 88.917 85.056L89.349 85.536L87.285 93.888L87.621 93.984C88.453 92.096 89.397 90.416 90.453 88.944C92.565 86.032 94.613 84.576 96.597 84.576C98.069 84.576 98.805 84.944 98.805 85.68C98.805 86.576 98.549 87.504 98.037 88.464C97.557 89.424 97.093 89.904 96.645 89.904ZM107.84 73.2C108.672 73.2 109.344 73.424 109.856 73.872C110.368 74.288 110.624 74.912 110.624 75.744C110.624 76.544 110.368 77.216 109.856 77.76C109.344 78.272 108.672 78.528 107.84 78.528C106.112 78.528 105.248 77.632 105.248 75.84C105.248 75.104 105.472 74.48 105.92 73.968C106.4 73.456 107.04 73.2 107.84 73.2ZM109.424 104.448L110.24 105.744C108.224 107.536 106.224 108.432 104.24 108.432C102.512 108.432 101.648 107.424 101.648 105.408C101.648 104.64 101.824 103.28 102.176 101.328L104.288 89.616C104.352 89.296 104.384 88.96 104.384 88.608C104.384 87.968 103.152 87.424 100.688 86.976L100.928 85.44C104.544 84.992 107.072 84.768 108.512 84.768L108.944 85.248C108.88 86.56 108.704 88.016 108.416 89.616L106.064 102.24C105.872 103.584 105.776 104.32 105.776 104.448C105.776 105.216 106.032 105.6 106.544 105.6C106.928 105.6 107.888 105.216 109.424 104.448ZM123.148 88.848L118.733 88.56C117.741 88.56 117.037 88.72 116.621 89.04C116.237 89.36 115.805 90.144 115.325 91.392H113.405C113.405 89.664 113.789 87.568 114.557 85.104C115.581 84.752 116.573 84.576 117.533 84.576C118.525 84.576 119.901 84.768 121.661 85.152C123.421 85.536 124.973 85.728 126.317 85.728C127.661 85.728 129.213 85.344 130.973 84.576L132.365 85.776L116.429 104.256L116.621 104.4C117.581 104.144 118.445 104.016 119.213 104.016C119.981 104.016 120.925 104.128 122.045 104.352C123.197 104.544 124.109 104.64 124.781 104.64C125.485 104.64 126.029 104.432 126.413 104.016C126.829 103.568 127.245 102.672 127.661 101.328H129.581C129.581 103.12 129.197 105.312 128.429 107.904C127.501 108.256 126.509 108.432 125.453 108.432C124.397 108.432 122.861 108.208 120.845 107.76C118.829 107.28 117.325 107.04 116.333 107.04C114.669 107.04 113.197 107.504 111.917 108.432L110.524 107.472L126.317 88.32L126.173 88.176C125.277 88.624 124.269 88.848 123.148 88.848ZM149.922 103.2C148.898 104.736 147.554 106 145.89 106.992C144.258 107.952 142.322 108.432 140.082 108.432C137.842 108.432 136.066 107.728 134.754 106.32C133.474 104.88 132.834 102.88 132.834 100.32C132.834 96.64 133.874 93.152 135.954 89.856C136.946 88.288 138.274 87.024 139.938 86.064C141.602 85.072 143.554 84.576 145.794 84.576C148.034 84.576 149.81 85.296 151.122 86.736C152.434 88.176 153.09 90.192 153.09 92.784C153.09 96.56 152.034 100.032 149.922 103.2ZM137.346 99.456C137.346 103.744 138.77 105.888 141.618 105.888C143.058 105.888 144.306 105.472 145.362 104.64C146.002 104.128 146.69 102.672 147.426 100.272C148.194 97.872 148.578 95.536 148.578 93.264C148.578 89.168 147.138 87.12 144.258 87.12C142.85 87.12 141.618 87.536 140.562 88.368C139.922 88.88 139.218 90.336 138.45 92.736C137.714 95.136 137.346 97.376 137.346 99.456ZM172.943 108.432C171.279 108.432 170.447 107.312 170.447 105.072C170.447 104.048 171.391 100.08 173.279 93.168C173.727 91.472 173.951 90.208 173.951 89.376C173.951 88.32 173.391 87.792 172.271 87.792C171.183 87.792 169.951 88.32 168.575 89.376C167.231 90.432 165.967 91.84 164.783 93.6C163.599 95.328 162.607 97.456 161.807 99.984C161.039 102.512 160.655 105.104 160.655 107.76C159.215 107.824 157.903 108.048 156.719 108.432L155.951 107.808C156.527 106.016 157.055 103.856 157.535 101.328L159.599 89.904C159.663 89.584 159.695 89.248 159.695 88.896C159.695 88.256 158.463 87.712 155.999 87.264L156.239 85.728C159.855 85.28 162.383 85.056 163.823 85.056L164.255 85.536C163.551 87.872 162.863 90.656 162.191 93.888L162.479 93.984C163.887 91.072 165.631 88.784 167.711 87.12C169.823 85.424 171.967 84.576 174.143 84.576C176.831 84.576 178.175 85.872 178.175 88.464C178.175 89.36 177.567 92.176 176.351 96.912C175.135 101.616 174.527 104.24 174.527 104.784C174.527 105.328 174.783 105.6 175.295 105.6C175.711 105.6 176.687 105.216 178.223 104.448L179.039 105.744C176.543 107.536 174.511 108.432 172.943 108.432ZM193.581 91.44L193.677 89.52C193.677 88.464 193.533 87.776 193.245 87.456C192.989 87.136 192.141 86.976 190.701 86.976C189.261 86.976 188.157 87.232 187.389 87.744C187.133 87.936 186.909 88.32 186.717 88.896C186.525 89.44 186.429 89.904 186.429 90.288C186.429 90.672 186.461 91.008 186.525 91.296C186.621 91.552 186.781 91.808 187.005 92.064C187.229 92.32 187.405 92.528 187.533 92.688C187.693 92.848 187.981 93.056 188.397 93.312C188.813 93.568 189.101 93.744 189.261 93.84C189.453 93.936 189.805 94.128 190.317 94.416C190.861 94.672 191.373 94.928 191.853 95.184C192.813 95.696 193.805 96.4 194.829 97.296C195.853 98.16 196.365 99.296 196.365 100.704C196.365 102.912 195.485 104.752 193.725 106.224C191.965 107.696 189.773 108.432 187.149 108.432C184.557 108.432 182.429 107.952 180.765 106.992C180.829 104.976 181.229 102.784 181.965 100.416H184.365C184.237 101.536 184.173 102.496 184.173 103.296C184.173 105.024 185.373 105.888 187.773 105.888C189.693 105.888 190.957 105.648 191.565 105.168C191.821 104.944 192.045 104.528 192.237 103.92C192.461 103.312 192.573 102.816 192.573 102.432C192.573 102.016 192.525 101.68 192.429 101.424C192.365 101.136 192.221 100.88 191.997 100.656C191.773 100.4 191.597 100.192 191.469 100.032C191.341 99.872 191.069 99.68 190.653 99.456C190.237 99.2 189.949 99.024 189.789 98.928C189.661 98.832 189.325 98.656 188.781 98.4C186.701 97.376 185.229 96.384 184.365 95.424C183.501 94.432 183.069 93.024 183.069 91.2C183.069 89.376 183.869 87.824 185.469 86.544C187.069 85.232 189.197 84.576 191.853 84.576C193.645 84.576 195.389 84.896 197.085 85.536C196.925 87.424 196.557 89.392 195.981 91.44H193.581Z" fill="#FFFAE2"/>
</svg>
