<svg width="73" height="60" viewBox="0 0 73 60" fill="none" xmlns="http://www.w3.org/2000/svg">
<g style="mix-blend-mode:multiply" clip-path="url(#clip0_98_570)">
<path d="M71.8351 4.67651H1.16489C0.521406 4.67651 0 5.09834 0 5.61892V54.6242C0 55.1448 0.521406 55.5666 1.16489 55.5666H71.8351C72.4786 55.5666 73 55.1448 73 54.6242V5.61892C73 5.09834 72.4786 4.67651 71.8351 4.67651ZM70.6702 6.56133V12.2158H2.32979V6.56133H70.6702ZM2.32979 53.6818V14.1006H70.6702V53.6818H2.32979Z" fill="black"/>
<path d="M61.3512 10.331C61.9945 10.331 62.5161 9.90905 62.5161 9.38858C62.5161 8.8681 61.9945 8.44617 61.3512 8.44617C60.7078 8.44617 60.1863 8.8681 60.1863 9.38858C60.1863 9.90905 60.7078 10.331 61.3512 10.331Z" fill="black"/>
<path d="M66.7872 10.331C67.4306 10.331 67.9521 9.90905 67.9521 9.38858C67.9521 8.8681 67.4306 8.44617 66.7872 8.44617C66.1439 8.44617 65.6223 8.8681 65.6223 9.38858C65.6223 9.90905 66.1439 10.331 66.7872 10.331Z" fill="black"/>
<path d="M55.9149 10.331C56.5582 10.331 57.0798 9.90905 57.0798 9.38858C57.0798 8.8681 56.5582 8.44617 55.9149 8.44617C55.2715 8.44617 54.75 8.8681 54.75 9.38858C54.75 9.90905 55.2715 10.331 55.9149 10.331Z" fill="black"/>
<path d="M51.6437 26.3519H60.9628C61.6063 26.3519 62.1277 25.93 62.1277 25.4094C62.1277 24.8889 61.6063 24.467 60.9628 24.467H51.6437C51.0002 24.467 50.4788 24.8889 50.4788 25.4094C50.4788 25.93 51.0002 26.3519 51.6437 26.3519Z" fill="black"/>
<path d="M51.6437 32.0064H60.9628C61.6063 32.0064 62.1277 31.5846 62.1277 31.064C62.1277 30.5434 61.6063 30.1216 60.9628 30.1216H51.6437C51.0002 30.1216 50.4788 30.5434 50.4788 31.064C50.4788 31.5846 51.0002 32.0064 51.6437 32.0064Z" fill="black"/>
<path d="M51.6437 37.6608H60.9628C61.6063 37.6608 62.1277 37.239 62.1277 36.7184C62.1277 36.1978 61.6063 35.776 60.9628 35.776H51.6437C51.0002 35.776 50.4788 36.1978 50.4788 36.7184C50.4788 37.239 51.0002 37.6608 51.6437 37.6608Z" fill="black"/>
<path d="M51.6437 43.3152H60.9628C61.6063 43.3152 62.1277 42.8934 62.1277 42.3728C62.1277 41.8522 61.6063 41.4304 60.9628 41.4304H51.6437C51.0002 41.4304 50.4788 41.8522 50.4788 42.3728C50.4788 42.8934 51.0002 43.3152 51.6437 43.3152Z" fill="black"/>
<path d="M20.3557 26.8068C20.0123 26.9784 19.8032 27.2818 19.8032 27.6085V40.1739C19.8032 40.5006 20.0123 40.8039 20.3557 40.9756C20.5429 41.0691 20.7552 41.1163 20.9681 41.1163C21.1461 41.1163 21.3247 41.0833 21.4891 41.0168L37.021 34.7341C37.4155 34.5744 37.6649 34.2482 37.6649 33.8912C37.6649 33.5342 37.4156 33.2079 37.021 33.0483L21.4891 26.7656C21.1279 26.6194 20.6993 26.635 20.3557 26.8068ZM22.133 29.1334L33.8952 33.8912L22.133 38.649V29.1334Z" fill="black"/>
<path d="M31.8404 22.2682H12.0372C11.3937 22.2682 10.8723 22.69 10.8723 23.2106V44.5719C10.8723 45.0924 11.3937 45.5143 12.0372 45.5143H45.4308C46.0743 45.5143 46.5957 45.0924 46.5957 44.5719V23.2106C46.5957 22.69 46.0743 22.2682 45.4308 22.2682H36.5C35.8565 22.2682 35.3351 22.69 35.3351 23.2106C35.3351 23.7312 35.8565 24.153 36.5 24.153H44.2659V43.6295H13.2021V24.153H31.8404C32.4839 24.153 33.0053 23.7312 33.0053 23.2106C33.0053 22.69 32.4839 22.2682 31.8404 22.2682Z" fill="black"/>
<path d="M67.1756 15.9855H5.82456C5.18107 15.9855 4.65967 16.4073 4.65967 16.9279V50.8546C4.65967 51.3752 5.18107 51.797 5.82456 51.797H56.3033C56.9468 51.797 57.4682 51.3752 57.4682 50.8546C57.4682 50.334 56.9468 49.9122 56.3033 49.9122H6.98946V17.8703H66.0107V49.9122H60.9629C60.3194 49.9122 59.798 50.334 59.798 50.8546C59.798 51.3752 60.3194 51.797 60.9629 51.797H67.1756C67.8191 51.797 68.3405 51.3752 68.3405 50.8546V16.9279C68.3405 16.4073 67.8191 15.9855 67.1756 15.9855Z" fill="black"/>
</g>
<defs>
<clipPath id="clip0_98_570">
<rect width="73" height="59.0576" fill="white" transform="translate(0 0.592773)"/>
</clipPath>
</defs>
</svg>
