<svg width="37" height="23" viewBox="0 0 37 23" fill="none" xmlns="http://www.w3.org/2000/svg">
<path d="M17.8108 22.4935C18.2788 22.2411 18.5706 21.761 18.5706 21.2388V13.1079H34.6252C35.4358 13.1079 36.0938 12.4652 36.0938 11.6734C36.0938 10.8815 35.4358 10.2389 34.6252 10.2389H18.5706V2.10797C18.5706 1.58389 18.2788 1.1038 17.8108 0.853236C17.3428 0.598847 16.771 0.616061 16.3187 0.893403L0.779091 10.4588C0.352222 10.7228 0.09375 11.1799 0.09375 11.6734C0.09375 12.1669 0.352222 12.624 0.779091 12.888L16.3187 22.4534C16.5576 22.5987 16.8298 22.6733 17.102 22.6733C17.3448 22.6733 17.5895 22.6121 17.8108 22.4935Z" fill="#fff"/>
</svg>
