<svg width="28" height="28" viewBox="0 0 28 28" fill="none" xmlns="http://www.w3.org/2000/svg">
<path fill-rule="evenodd" clip-rule="evenodd" d="M13.9993 0.899902C6.63556 0.899902 0.666016 6.86945 0.666016 14.2332C0.666016 21.5981 6.63556 27.5666 13.9993 27.5666C21.3621 27.5666 27.3316 21.5981 27.3316 14.2332C27.3316 6.86999 21.3615 0.899902 13.9993 0.899902ZM21.4254 20.7096C21.4254 21.303 20.9327 21.7827 20.3257 21.7827H7.64592C7.03786 21.7827 6.54622 21.3025 6.54622 20.7096V7.88305C6.54622 7.2907 7.03786 6.80989 7.64592 6.80989H20.3252C20.9321 6.80989 21.4249 7.29124 21.4249 7.88305L21.4254 20.7096ZM14.5473 13.5413C14.8462 13.0799 15.3806 12.4253 16.5723 12.4253C18.0505 12.4253 19.16 13.3907 19.1605 15.4678V19.3429H16.9135V15.726C16.9135 14.8175 16.5886 14.197 15.7742 14.197C15.1543 14.197 14.7845 14.6171 14.6215 15.02C14.5619 15.1651 14.5473 15.3649 14.5473 15.5679V19.3435H12.3003C12.3003 19.3435 12.33 13.2175 12.3003 12.584H14.5473V13.5413ZM14.5473 13.5413C14.5435 13.5488 14.5381 13.557 14.5327 13.5635H14.5473V13.5413ZM9.9476 9.3233C9.1793 9.3233 8.6758 9.829 8.6758 10.4923C8.6758 11.1404 9.1631 11.6608 9.9179 11.6608H9.9325C10.716 11.6608 11.2038 11.1404 11.2038 10.4923C11.1892 9.829 10.7165 9.3233 9.9476 9.3233ZM11.0571 12.584H8.8095V19.3435H11.0571V12.584Z" fill="black"/>
</svg>
