<svg width="40" height="40" viewBox="0 0 40 40" fill="none" xmlns="http://www.w3.org/2000/svg">
<path d="M19.221 24.684L26.1377 20.2673C26.3877 20.1007 26.5755 19.8923 26.701 19.6423C26.8266 19.3923 26.8888 19.1284 26.8877 18.8507C26.8877 18.5729 26.8255 18.309 26.701 18.059C26.5766 17.809 26.3888 17.6007 26.1377 17.434L19.221 13.0173C18.6655 12.6562 18.096 12.6284 17.5127 12.934C16.9294 13.2396 16.6377 13.7257 16.6377 14.3923V23.309C16.6377 23.9757 16.9294 24.4618 17.5127 24.7673C18.096 25.0729 18.6655 25.0451 19.221 24.684ZM15.8044 35.5173C15.3321 35.5173 14.936 35.3573 14.616 35.0373C14.296 34.7173 14.1366 34.3218 14.1377 33.8507V32.184H7.47103C6.55436 32.184 5.76936 31.8573 5.11603 31.204C4.4627 30.5507 4.13659 29.7662 4.1377 28.8507V8.85067C4.1377 7.934 4.46436 7.149 5.1177 6.49567C5.77103 5.84234 6.55548 5.51623 7.47103 5.51734H34.1377C35.0544 5.51734 35.8394 5.844 36.4927 6.49734C37.146 7.15067 37.4721 7.93511 37.471 8.85067V28.8507C37.471 29.7673 37.1444 30.5523 36.491 31.2057C35.8377 31.859 35.0533 32.1851 34.1377 32.184H27.471V33.8507C27.471 34.3229 27.311 34.719 26.991 35.039C26.671 35.359 26.2755 35.5184 25.8044 35.5173H15.8044Z" fill="white"/>
</svg>
