<svg width="28" height="24" viewBox="0 0 28 24" fill="none" xmlns="http://www.w3.org/2000/svg">
<path d="M8.80545 23.4087C19.3715 23.4087 25.1507 14.4018 25.1507 6.59115C25.1507 6.33524 25.1507 6.08058 25.1339 5.82591C26.2581 4.98956 27.2286 3.95398 28 2.76763C26.9515 3.24565 25.8393 3.55914 24.7005 3.69763C25.8997 2.95896 26.7972 1.79717 27.2261 0.428461C26.0984 1.11692 24.8647 1.6021 23.5782 1.86307C22.712 0.915485 21.5665 0.288026 20.3189 0.0777886C19.0712 -0.132449 17.791 0.0862545 16.6763 0.700057C15.5616 1.31386 14.6746 2.28854 14.1526 3.47327C13.6305 4.65801 13.5025 5.98675 13.7884 7.25388C11.5044 7.13605 9.27004 6.52535 7.23035 5.46143C5.19065 4.3975 3.39121 2.90412 1.94884 1.07824C1.21423 2.37944 0.989215 3.91979 1.31962 5.38568C1.65003 6.85157 2.51102 8.13279 3.72728 8.96847C2.8131 8.94058 1.91885 8.68684 1.12 8.22866V8.3035C1.12035 9.66817 1.57948 10.9907 2.41951 12.0468C3.25955 13.1028 4.42876 13.8274 5.72884 14.0976C4.88309 14.3349 3.99572 14.3696 3.13491 14.199C3.50199 15.3735 4.21666 16.4005 5.17897 17.1365C6.14128 17.8725 7.3031 18.2806 8.50194 18.3038C6.46772 19.9487 3.95479 20.8417 1.36752 20.839C0.910449 20.8381 0.453827 20.8096 0 20.7537C2.62712 22.4883 5.68391 23.4084 8.80545 23.4041" fill="#1DA1F2"/>
</svg>
