<svg width="512" height="13" viewBox="0 0 512 13" fill="none" xmlns="http://www.w3.org/2000/svg">
<line y1="3.5" x2="230" y2="3.5" stroke="black"/>
<line x1="282" y1="3.5" x2="512" y2="3.5" stroke="black"/>
<path d="M251.32 12.18C250.293 12.18 249.36 11.9467 248.52 11.48C247.693 11.0133 247.04 10.3533 246.56 9.5C246.093 8.63333 245.86 7.63333 245.86 6.5C245.86 5.38 246.1 4.39333 246.58 3.54C247.073 2.67333 247.74 2.01333 248.58 1.56C249.42 1.09333 250.36 0.859999 251.4 0.859999C252.44 0.859999 253.38 1.09333 254.22 1.56C255.06 2.01333 255.72 2.66667 256.2 3.52C256.693 4.37333 256.94 5.36667 256.94 6.5C256.94 7.63333 256.687 8.63333 256.18 9.5C255.687 10.3533 255.013 11.0133 254.16 11.48C253.307 11.9467 252.36 12.18 251.32 12.18ZM251.32 10.58C251.973 10.58 252.587 10.4267 253.16 10.12C253.733 9.81333 254.193 9.35333 254.54 8.74C254.9 8.12667 255.08 7.38 255.08 6.5C255.08 5.62 254.907 4.87333 254.56 4.26C254.213 3.64667 253.76 3.19333 253.2 2.9C252.64 2.59333 252.033 2.44 251.38 2.44C250.713 2.44 250.1 2.59333 249.54 2.9C248.993 3.19333 248.553 3.64667 248.22 4.26C247.887 4.87333 247.72 5.62 247.72 6.5C247.72 7.39333 247.88 8.14667 248.2 8.76C248.533 9.37333 248.973 9.83333 249.52 10.14C250.067 10.4333 250.667 10.58 251.32 10.58ZM261.153 2.82C261.473 2.19333 261.926 1.70667 262.513 1.36C263.113 1.01333 263.84 0.839999 264.693 0.839999V2.72H264.213C262.173 2.72 261.153 3.82667 261.153 6.04V12H259.333V1.04H261.153V2.82Z" fill="black"/>
</svg>
