<svg width="16" height="16" viewBox="0 0 16 16" fill="none" xmlns="http://www.w3.org/2000/svg">
<path d="M14 8.75H2C1.59 8.75 1.25 8.41 1.25 8C1.25 7.59 1.59 7.25 2 7.25H14C14.41 7.25 14.75 7.59 14.75 8C14.75 8.41 14.41 8.75 14 8.75Z" fill="#fff"/>
<path d="M14 8.75H2C1.59 8.75 1.25 8.41 1.25 8C1.25 7.59 1.59 7.25 2 7.25H14C14.41 7.25 14.75 7.59 14.75 8C14.75 8.41 14.41 8.75 14 8.75Z" stroke="#fff"/>
<path d="M14 8.75H2C1.59 8.75 1.25 8.41 1.25 8C1.25 7.59 1.59 7.25 2 7.25H14C14.41 7.25 14.75 7.59 14.75 8C14.75 8.41 14.41 8.75 14 8.75Z" stroke="#fff" stroke-opacity="0.2"/>
<path d="M8 14.75C7.59 14.75 7.25 14.41 7.25 14V2C7.25 1.59 7.59 1.25 8 1.25C8.41 1.25 8.75 1.59 8.75 2V14C8.75 14.41 8.41 14.75 8 14.75Z" fill="#fff"/>
<path d="M8 14.75C7.59 14.75 7.25 14.41 7.25 14V2C7.25 1.59 7.59 1.25 8 1.25C8.41 1.25 8.75 1.59 8.75 2V14C8.75 14.41 8.41 14.75 8 14.75Z" stroke="#fff"/>
<path d="M8 14.75C7.59 14.75 7.25 14.41 7.25 14V2C7.25 1.59 7.59 1.25 8 1.25C8.41 1.25 8.75 1.59 8.75 2V14C8.75 14.41 8.41 14.75 8 14.75Z" stroke="#fff" stroke-opacity="0.2"/>
</svg>
