<svg width="35" height="35" viewBox="0 0 35 35" fill="none" xmlns="http://www.w3.org/2000/svg">
<path d="M17.5003 8.00614V29.8811M32.0837 6.81031V24.4124C32.0837 25.8124 30.9462 27.1249 29.5462 27.2999L29.0649 27.3582C25.8857 27.7811 20.9857 29.3999 18.1857 30.9457C17.8066 31.1645 17.1795 31.1645 16.7857 30.9457L16.7274 30.9166C13.9274 29.3853 9.04199 27.7811 5.87741 27.3582L5.45449 27.2999C4.05449 27.1249 2.91699 25.8124 2.91699 24.4124V6.79572C2.91699 5.06031 4.33158 3.74781 6.06699 3.89364C9.12949 4.14156 13.767 5.68739 16.3628 7.30614L16.7274 7.52489C17.1503 7.78739 17.8503 7.78739 18.2732 7.52489L18.5212 7.36447C19.4399 6.79572 20.6066 6.22697 21.8753 5.71656V11.6666L24.792 9.72697L27.7087 11.6666V4.05406C28.1024 3.98114 28.4816 3.93739 28.8316 3.90822H28.9191C30.6545 3.76239 32.0837 5.06031 32.0837 6.81031Z" stroke="white" stroke-width="4" stroke-linecap="round" stroke-linejoin="round"/>
<path d="M27.7083 4.0542V11.6667L24.7917 9.72712L21.875 11.6667V5.7167C23.7854 4.95837 25.9146 4.34587 27.7083 4.0542Z" stroke="white" stroke-width="4" stroke-linecap="round" stroke-linejoin="round"/>
</svg>
