<svg width="37" height="23" viewBox="0 0 37 23" fill="none" xmlns="http://www.w3.org/2000/svg">
<path d="M18.9626 1.13438C18.4946 1.38686 18.2029 1.86695 18.2029 2.38912V10.52H2.14828C1.33762 10.52 0.679688 11.1627 0.679688 11.9545C0.679688 12.7464 1.33762 13.3891 2.14828 13.3891H18.2029V21.52C18.2029 22.044 18.4946 22.5241 18.9626 22.7747C19.4306 23.0291 20.0024 23.0119 20.4547 22.7345L35.9943 13.1691C36.4212 12.9052 36.6797 12.448 36.6797 11.9545C36.6797 11.4611 36.4212 11.0039 35.9943 10.74L20.4547 1.17455C20.2158 1.02919 19.9437 0.95459 19.6715 0.95459C19.4287 0.95459 19.1839 1.0158 18.9626 1.13438Z" fill="#fff"/>
</svg>
