<svg width="32" height="33" viewBox="0 0 32 33" fill="none" xmlns="http://www.w3.org/2000/svg">
<path fill-rule="evenodd" clip-rule="evenodd" d="M15.9999 2.8999C8.6358 2.8999 2.66602 8.87077 2.66602 16.2338C2.66602 23.5979 8.6358 29.5666 15.9999 29.5666C23.364 29.5666 29.3327 23.5979 29.3327 16.2338C29.3327 8.87077 23.3634 2.8999 15.9999 2.8999ZM22.7164 13.5453C22.7234 13.6894 22.7261 13.834 22.7261 13.9801C22.7261 18.4208 19.3462 23.5405 13.1658 23.5405C11.2685 23.5405 9.50162 22.9844 8.01473 22.0314C8.27788 22.0622 8.54483 22.0779 8.81611 22.0779C10.3907 22.0779 11.8397 21.5408 12.9893 20.6398C11.5192 20.6122 10.2786 19.6402 9.85088 18.3055C10.0556 18.3455 10.2662 18.3656 10.4828 18.3656C10.7893 18.3656 11.086 18.3255 11.3681 18.2481C9.8303 17.9394 8.67208 16.5803 8.67208 14.9537C8.67208 14.9391 8.67208 14.925 8.67262 14.9104C9.1253 15.1622 9.64349 15.3133 10.1947 15.3311C9.29261 14.7274 8.6997 13.7002 8.6997 12.5339C8.6997 11.9182 8.86539 11.3404 9.15454 10.8445C10.812 12.8772 13.2882 14.2151 16.0811 14.3549C16.0237 14.1096 15.9939 13.8524 15.9939 13.5892C15.9939 11.7341 17.4982 10.2293 19.3543 10.2293C20.3209 10.2293 21.1937 10.6376 21.8067 11.2901C22.5723 11.1401 23.2914 10.8596 23.9407 10.4746C23.6889 11.2598 23.1566 11.9182 22.4624 12.3335C23.1431 12.2523 23.7907 12.0714 24.3928 11.8045C23.9434 12.4797 23.3732 13.0716 22.7164 13.5453Z" fill="black"/>
</svg>
